<svg width="28" height="29" viewBox="0 0 28 29" fill="none" xmlns="http://www.w3.org/2000/svg">
<path d="M18.7835 3.56478C18.6271 4.33469 18.6271 5.1282 18.7835 5.89811H5.263L14.0713 13.6704L19.9618 8.39711C20.4588 9.01195 21.0795 9.52411 21.7853 9.89628L14.0842 16.7924L4.66683 8.48345V22.2314H23.3335V10.4481C24.1034 10.6045 24.8969 10.6045 25.6668 10.4481V23.3981C25.6668 23.7075 25.5439 24.0043 25.3251 24.2231C25.1063 24.4419 24.8096 24.5648 24.5002 24.5648H3.50016C3.19074 24.5648 2.894 24.4419 2.6752 24.2231C2.45641 24.0043 2.3335 23.7075 2.3335 23.3981V4.73145C2.3335 4.42203 2.45641 4.12528 2.6752 3.90649C2.894 3.6877 3.19074 3.56478 3.50016 3.56478H18.7835ZM24.5002 8.23145C24.0405 8.23145 23.5854 8.14092 23.1608 7.96502C22.7361 7.78913 22.3503 7.53132 22.0253 7.20632C21.7003 6.88131 21.4425 6.49548 21.2666 6.07084C21.0907 5.6462 21.0002 5.19107 21.0002 4.73145C21.0002 4.27182 21.0907 3.81669 21.2666 3.39205C21.4425 2.96741 21.7003 2.58158 22.0253 2.25657C22.3503 1.93157 22.7361 1.67376 23.1608 1.49787C23.5854 1.32198 24.0405 1.23145 24.5002 1.23145C25.4284 1.23145 26.3187 1.60019 26.975 2.25657C27.6314 2.91295 28.0002 3.80319 28.0002 4.73145C28.0002 5.6597 27.6314 6.54994 26.975 7.20632C26.3187 7.8627 25.4284 8.23145 24.5002 8.23145Z" fill="#5BB5A2"/>
</svg>
