<svg width="28" height="29" viewBox="0 0 28 29" fill="none" xmlns="http://www.w3.org/2000/svg">
<path d="M24.5 19.2211V23.3465C24.5001 23.6418 24.3882 23.9263 24.1869 24.1423C23.9855 24.3584 23.7096 24.4901 23.415 24.5108C22.9052 24.5458 22.4887 24.5645 22.1667 24.5645C11.8568 24.5645 3.5 16.2076 3.5 5.89779C3.5 5.57579 3.5175 5.15929 3.55367 4.64945C3.57434 4.3548 3.70601 4.07897 3.9221 3.8776C4.1382 3.67623 4.42263 3.56432 4.718 3.56445H8.84333C8.98805 3.56431 9.12765 3.61796 9.23502 3.71498C9.34239 3.812 9.40986 3.94547 9.42433 4.08945C9.45117 4.35779 9.47567 4.57129 9.499 4.73345C9.73086 6.35153 10.206 7.92526 10.9083 9.40129C11.0192 9.63462 10.9468 9.91345 10.7368 10.0628L8.21917 11.8618C9.75853 15.4486 12.617 18.3071 16.2038 19.8465L18.0005 17.3335C18.0739 17.2308 18.1811 17.1571 18.3032 17.1254C18.4254 17.0936 18.5549 17.1057 18.669 17.1596C20.1449 17.8606 21.7182 18.3346 23.3357 18.5655C23.4978 18.5888 23.7113 18.6145 23.9773 18.6401C24.1211 18.6549 24.2543 18.7225 24.3511 18.8298C24.4479 18.9371 24.5013 19.0766 24.5012 19.2211H24.5Z" fill="#5BB5A2"/>
</svg>
