<svg width="723" height="137" viewBox="0 0 723 137" fill="none" xmlns="http://www.w3.org/2000/svg">
<rect y="0.563965" width="131.397" height="60" rx="10" fill="#F8F8F8"/>
<g clip-path="url(#clip0_722_713)">
<path d="M48.0954 27.8402C48.0954 26.0571 46.3615 24.1633 43.361 24.1633C39.9916 24.1633 36.2902 26.635 35.7245 31.5662C35.1466 36.5465 38.2455 38.76 41.3689 38.76C44.4924 38.76 46.1279 37.5426 47.8003 35.9193C46.3615 34.1117 44.5047 34.9479 44.1481 35.1323C43.7546 35.3291 43.2504 35.5996 42.2174 35.5996C41.0123 35.5996 39.7826 35.0586 39.7826 32.8082C47.5052 32.0458 48.0954 29.6232 48.0954 27.8402ZM44.271 28.1353C44.2218 28.6887 44.0005 29.6355 40.09 30.1643C40.9139 27.2376 42.4879 27.0163 43.2135 27.0163C43.8898 27.0163 44.3202 27.545 44.271 28.1353ZM31.1869 28.6149C31.1869 28.6149 29.5268 33.8288 29.3915 34.2592C29.3424 33.8165 28.1249 24.4585 28.1249 24.4585C25.2966 24.4585 23.7841 26.4752 22.9848 28.6026C22.9848 28.6026 20.968 33.8288 20.7959 34.2715C20.7836 33.8657 20.4884 28.6641 20.4884 28.6641C20.3163 26.0571 17.9306 24.4708 16 24.4708L18.3364 38.6493C21.3 38.637 22.8987 36.6326 23.7349 34.5052C23.7349 34.5052 25.518 29.8938 25.5917 29.6847C25.604 29.8815 26.8706 38.6493 26.8706 38.6493C29.8465 38.6493 31.4452 36.7678 32.306 34.7142L36.4747 24.4708C33.5357 24.4708 31.9862 26.4752 31.1869 28.6149ZM59.0152 24.1387C57.183 24.1387 55.7811 25.1348 54.6006 26.5982V26.5859L55.6581 18.064C53.2233 18.064 51.2435 20.1791 50.8623 23.3271L49.0177 38.5386C50.4196 38.5386 51.9075 38.1328 52.7068 37.0999C53.4201 38.0222 54.4899 38.76 56.0762 38.76C60.1835 38.76 62.9995 33.9887 62.9995 29.5126C62.9749 25.4299 60.9951 24.1387 59.0152 24.1387ZM58.634 31.4555C58.2036 33.9518 56.8141 35.6488 55.4737 35.6488C54.121 35.6488 53.543 35.0463 53.543 35.0463C53.8013 32.8574 53.9611 31.517 54.453 30.3611C54.9449 29.2051 56.1131 27.3606 57.3305 27.3606C58.5234 27.3606 59.0644 28.9469 58.634 31.4555ZM73.2553 24.4708H70.3901L70.4024 24.3232C70.5991 22.454 71.0418 21.4703 72.5052 21.3104C73.5012 21.212 73.9439 20.6955 74.0546 20.1299C74.1407 19.6872 74.4112 18.15 74.4112 18.15C68.6562 18.1132 66.8485 20.5972 66.3812 24.3847L66.3689 24.4708H66.3074C65.3729 24.4708 64.3399 25.5283 64.1677 26.8687L64.1063 27.3606H66.0246L64.4137 40.666L63.9218 43.0517C63.9833 43.0517 64.0571 43.064 64.1185 43.064C66.8116 42.9656 68.5332 40.8382 68.9144 37.7516L70.1687 27.3606H71.0664C71.9518 27.3606 72.9848 26.4752 73.1692 24.9995L73.2553 24.4708ZM88.1594 24.2248C84.8515 24.2248 81.728 26.6596 80.7688 30.484C79.8096 34.3084 81.2607 38.8338 86.1303 38.8338C90.9877 38.8338 93.7914 34.124 93.7914 30.2012C93.7914 26.303 91.1476 24.2248 88.1594 24.2248ZM89.4998 31.3325C89.3276 33.0664 88.5652 35.698 86.4747 35.698C84.3719 35.698 84.667 32.6237 84.876 31.1604C85.0974 29.5986 85.9705 27.3729 87.8519 27.3729C89.5366 27.3729 89.6965 29.3773 89.4998 31.3325ZM110.134 28.6149C110.134 28.6149 108.474 33.8288 108.339 34.2592C108.29 33.8165 107.072 24.4585 107.072 24.4585C104.244 24.4585 102.731 26.4752 101.932 28.6026C101.932 28.6026 99.9154 33.8288 99.7432 34.2715C99.7309 33.8657 99.4358 28.6641 99.4358 28.6641C99.2637 26.0571 96.878 24.4708 94.9474 24.4708L97.2715 38.6493C100.235 38.637 101.834 36.6326 102.67 34.5052C102.67 34.5052 104.453 29.8938 104.515 29.6847C104.539 29.8815 105.793 38.6493 105.793 38.6493C108.769 38.6493 110.368 36.7678 111.229 34.7142L115.397 24.4708C112.471 24.4708 110.921 26.4752 110.134 28.6149ZM75.9607 18.15L73.5504 37.5918L73.0585 39.9897C73.12 39.9897 73.1938 40.002 73.2553 40.002C75.85 39.9651 77.6945 37.6901 78.0389 34.8249L79.4284 23.6714C79.8465 20.2651 77.8175 18.15 75.9607 18.15Z" fill="#3A60F8"/>
</g>
<rect x="147.397" y="0.563965" width="137.738" height="60" rx="10" fill="#F8F8F8"/>
<g clip-path="url(#clip1_722_713)">
<path d="M186.205 21.246C186.185 21.0969 186.055 21.0143 185.947 21.0053C185.839 20.9963 183.739 20.9644 183.739 20.9644C183.739 20.9644 181.982 19.2583 181.808 19.0847C181.635 18.9112 181.296 18.9636 181.164 19.0028C181.162 19.0037 180.834 19.1052 180.281 19.2763C180.189 18.9767 180.053 18.6083 179.859 18.2382C179.234 17.0446 178.317 16.4134 177.211 16.4118C177.209 16.4118 177.208 16.4118 177.207 16.4118C177.13 16.4118 177.053 16.4192 176.977 16.4257C176.944 16.3864 176.911 16.3479 176.877 16.3103C176.394 15.7945 175.776 15.5432 175.035 15.5653C173.606 15.6062 172.182 16.6386 171.028 18.4724C170.216 19.7626 169.598 21.3835 169.423 22.6385C167.781 23.1469 166.634 23.5022 166.608 23.5104C165.78 23.7707 165.754 23.7961 165.645 24.5771C165.565 25.1673 163.397 41.9302 163.397 41.9302L181.564 45.0722L189.438 43.1147C189.438 43.1147 186.226 21.395 186.205 21.246ZM179.372 19.5579C178.954 19.6872 178.478 19.8346 177.962 19.9942C177.952 19.2705 177.866 18.2636 177.528 17.3934C178.613 17.5989 179.147 18.826 179.372 19.5579ZM177.012 20.289C176.06 20.5837 175.021 20.9054 173.979 21.228C174.272 20.1056 174.828 18.9881 175.51 18.2554C175.764 17.9828 176.119 17.6791 176.54 17.5055C176.936 18.3307 177.022 19.499 177.012 20.289ZM175.064 16.5166C175.4 16.5092 175.682 16.5829 175.924 16.7417C175.537 16.9423 175.164 17.2305 174.814 17.6062C173.906 18.5804 173.21 20.0925 172.932 21.5513C172.067 21.819 171.221 22.0818 170.441 22.3225C170.933 20.0262 172.858 16.5804 175.064 16.5166Z" fill="#95BF47"/>
<path d="M185.947 21.0064C185.84 20.9974 183.739 20.9654 183.739 20.9654C183.739 20.9654 181.982 19.2593 181.809 19.0858C181.744 19.0211 181.657 18.9875 181.565 18.9736L181.566 45.0716L189.439 43.115C189.439 43.115 186.226 21.3961 186.206 21.247C186.185 21.098 186.054 21.0154 185.947 21.0064Z" fill="#5E8E3E"/>
<path d="M177.201 25.0545L176.286 28.4757C176.286 28.4757 175.266 28.0115 174.057 28.0876C172.284 28.1998 172.265 29.3181 172.283 29.5989C172.38 31.1289 176.405 31.463 176.631 35.047C176.809 37.8665 175.135 39.7953 172.724 39.9475C169.83 40.1301 168.237 38.4232 168.237 38.4232L168.85 35.8149C168.85 35.8149 170.454 37.0249 171.738 36.9439C172.576 36.8907 172.876 36.2087 172.846 35.7265C172.719 33.7306 169.442 33.8485 169.234 30.569C169.06 27.8093 170.873 25.0128 174.872 24.7606C176.412 24.6616 177.201 25.0545 177.201 25.0545Z" fill="white"/>
<path d="M199.807 32.2181C198.901 31.7268 198.436 31.3127 198.436 30.7435C198.436 30.0193 199.082 29.554 200.092 29.554C201.267 29.554 202.316 30.0452 202.316 30.0452L203.143 27.5102C203.143 27.5102 202.382 26.915 200.143 26.915C197.027 26.915 194.867 28.6997 194.867 31.2088C194.867 32.6314 195.875 33.7178 197.221 34.4932C198.307 35.1136 198.695 35.5537 198.695 36.2C198.695 36.8724 198.152 37.4156 197.143 37.4156C195.64 37.4156 194.221 36.6393 194.221 36.6393L193.342 39.1743C193.342 39.1743 194.653 40.0537 196.859 40.0537C200.067 40.0537 202.369 38.476 202.369 35.6308C202.368 34.1059 201.204 33.0195 199.807 32.2181Z" fill="black"/>
<path d="M212.584 26.8901C211.006 26.8901 209.765 27.6404 208.808 28.778L208.756 28.752L210.127 21.5879H206.557L203.092 39.8217H206.661L207.851 33.589C208.316 31.2351 209.532 29.7873 210.67 29.7873C211.471 29.7873 211.782 30.3305 211.782 31.1067C211.782 31.598 211.73 32.1932 211.627 32.6844L210.283 39.8226H213.852L215.249 32.4514C215.404 31.6751 215.508 30.7446 215.508 30.1234C215.506 28.1057 214.446 26.8901 212.584 26.8901Z" fill="black"/>
<path d="M223.576 26.8901C219.282 26.8901 216.438 30.7698 216.438 35.0887C216.438 37.856 218.145 40.08 221.352 40.08C225.568 40.08 228.413 36.3043 228.413 31.8814C228.413 29.3212 226.912 26.8901 223.576 26.8901ZM221.817 37.3395C220.602 37.3395 220.084 36.3051 220.084 35.0116C220.084 32.9686 221.145 29.6322 223.085 29.6322C224.352 29.6322 224.765 30.7186 224.765 31.7791C224.765 33.9771 223.706 37.3395 221.817 37.3395Z" fill="black"/>
<path d="M237.543 26.8901C235.133 26.8901 233.766 29.011 233.766 29.011H233.715L233.922 27.0972H230.767C230.612 28.3907 230.326 30.3557 230.043 31.8303L227.56 44.891H231.129L232.111 39.6147H232.189C232.189 39.6147 232.922 40.08 234.284 40.08C238.474 40.08 241.215 35.7871 241.215 31.4413C241.215 29.0371 240.155 26.8901 237.543 26.8901ZM234.129 37.3907C233.202 37.3907 232.654 36.8734 232.654 36.8734L233.249 33.5371C233.663 31.313 234.826 29.8384 236.068 29.8384C237.155 29.8384 237.491 30.8469 237.491 31.8043C237.491 34.1062 236.12 37.3907 234.129 37.3907Z" fill="black"/>
<path d="M246.311 21.769C245.173 21.769 244.268 22.6744 244.268 23.838C244.268 24.8984 244.94 25.6227 245.949 25.6227H246C247.113 25.6227 248.069 24.8724 248.095 23.5538C248.095 22.5193 247.397 21.769 246.311 21.769Z" fill="black"/>
<path d="M241.319 39.8214H244.888L247.32 27.1748H243.724L241.319 39.8214Z" fill="black"/>
<path d="M256.398 27.149H253.915L254.044 26.5539C254.251 25.3383 254.975 24.2519 256.165 24.2519C256.8 24.2519 257.303 24.433 257.303 24.433L258.001 21.6398C258.001 21.6398 257.38 21.3296 256.061 21.3296C254.793 21.3296 253.527 21.6917 252.569 22.5191C251.354 23.5536 250.785 25.0533 250.5 26.5539L250.398 27.149H248.742L248.224 29.8392H249.88L247.992 39.8225H251.562L253.45 29.8392H255.907L256.398 27.149Z" fill="black"/>
<path d="M264.984 27.1752C264.984 27.1752 262.753 32.7965 261.751 35.865H261.699C261.631 34.8768 260.82 27.1752 260.82 27.1752H257.069L259.217 38.7873C259.269 39.0455 259.243 39.2014 259.139 39.3824C258.725 40.1839 258.027 40.9602 257.199 41.5294C256.527 42.0206 255.777 42.3308 255.182 42.5378L256.165 45.5641C256.889 45.409 258.389 44.8138 259.656 43.6242C261.286 42.0985 262.785 39.7446 264.337 36.5373L268.708 27.1743H264.984V27.1752Z" fill="black"/>
</g>
<rect x="301.135" y="0.563965" width="97.5022" height="60" rx="10" fill="#F8F8F8"/>
<g clip-path="url(#clip2_722_713)">
<path d="M356.441 28.6106H354.808C354.775 28.477 354.75 28.322 354.733 28.1461C354.7 27.8037 354.7 27.4588 354.733 27.1164C354.75 26.9408 354.775 26.786 354.808 26.6516H358.877V39.5363C358.673 39.5717 358.468 39.5967 358.262 39.6112C358.057 39.6269 357.852 39.6352 357.646 39.6361C357.449 39.6348 357.253 39.6265 357.056 39.6112C356.85 39.5966 356.645 39.5714 356.441 39.5359V28.6101V28.6104L356.441 28.6106ZM370.606 31.8509C370.606 31.3819 370.543 30.9341 370.418 30.5068C370.292 30.0801 370.107 29.7077 369.865 29.3893C369.622 29.0715 369.312 28.8159 368.936 28.6235C368.559 28.4309 368.111 28.3345 367.592 28.3345C366.571 28.3345 365.788 28.6447 365.244 29.2639C364.7 29.8833 364.369 30.7456 364.252 31.8509H370.606H370.606ZM364.227 33.7093C364.26 35.1158 364.624 36.1457 365.319 36.7984C366.014 37.4513 367.04 37.7783 368.396 37.7783C369.584 37.7783 370.715 37.5687 371.786 37.1501C371.92 37.4013 372.029 37.7069 372.112 38.0669C372.195 38.4174 372.245 38.7746 372.263 39.1342C371.711 39.3692 371.103 39.5443 370.443 39.6618C369.781 39.7786 369.048 39.8376 368.245 39.8376C367.073 39.8376 366.068 39.6738 365.231 39.3476C364.394 39.0208 363.703 38.5603 363.159 37.9662C362.615 37.3719 362.217 36.6686 361.966 35.8563C361.715 35.0445 361.589 34.1528 361.589 33.1816C361.589 32.2273 361.71 31.3355 361.953 30.5065C362.195 29.6782 362.569 28.9581 363.07 28.3469C363.573 27.7355 364.205 27.2501 364.967 26.8901C365.728 26.5301 366.628 26.3499 367.667 26.3499C368.554 26.3499 369.333 26.5008 370.003 26.8021C370.672 27.1034 371.233 27.5179 371.685 28.0453C372.137 28.5729 372.481 29.2008 372.715 29.9288C372.949 30.6574 373.067 31.4484 373.067 32.3026C373.067 32.5371 373.058 32.7839 373.041 33.0433C373.028 33.2653 373.011 33.4872 372.991 33.7088H364.226L364.226 33.7092L364.227 33.7093ZM375.806 26.6516C375.981 26.6199 376.157 26.5948 376.334 26.5764C376.501 26.56 376.677 26.5515 376.861 26.5515C377.045 26.5515 377.229 26.56 377.414 26.5764C377.598 26.5934 377.765 26.6186 377.916 26.6516C377.966 26.9029 378.016 27.2339 378.066 27.6437C378.116 28.054 378.142 28.4012 378.142 28.686C378.493 28.1169 378.958 27.6226 379.535 27.2039C380.113 26.7856 380.854 26.576 381.758 26.576C381.892 26.576 382.03 26.5805 382.172 26.5888C382.294 26.5954 382.416 26.6077 382.537 26.6262C382.57 26.7771 382.596 26.9364 382.612 27.1036C382.629 27.2708 382.637 27.4468 382.637 27.6308C382.637 27.8319 382.624 28.0414 382.599 28.2586C382.575 28.4686 382.546 28.6779 382.512 28.8864C382.376 28.853 382.237 28.8361 382.097 28.8362H381.758C381.306 28.8362 380.875 28.8991 380.464 29.0245C380.054 29.1502 379.686 29.3722 379.359 29.69C379.033 30.0083 378.773 30.4438 378.581 30.9964C378.388 31.5489 378.292 32.2605 378.292 33.1311V39.5359C378.088 39.5712 377.883 39.5965 377.677 39.6111C377.451 39.6278 377.246 39.636 377.061 39.636C376.856 39.6351 376.651 39.6268 376.446 39.6111C376.232 39.5955 376.018 39.5704 375.805 39.536V26.6517L375.806 26.6516ZM358.179 19.7718C358.179 20.0724 358.125 20.3705 358.019 20.6519C357.737 20.7578 357.439 20.8121 357.138 20.8122H357.135C356.834 20.8122 356.536 20.758 356.254 20.652C356.148 20.3706 356.094 20.0724 356.094 19.7716V19.7677C356.094 19.4579 356.151 19.1612 356.254 18.8874C356.535 18.7812 356.833 18.7269 357.134 18.7271H357.138C357.448 18.7271 357.744 18.784 358.018 18.8874C358.124 19.1687 358.178 19.467 358.178 19.7677V19.7716H358.179L358.179 19.7718ZM361.248 19.0748H358.814L360.535 17.3541C360.264 16.9741 359.932 16.642 359.552 16.3715L357.831 18.0923V15.6586C357.602 15.6201 357.371 15.6007 357.139 15.6006H357.134C356.898 15.6006 356.667 15.6208 356.442 15.6586V18.0923L354.72 16.3714C354.531 16.5063 354.353 16.6569 354.189 16.8215L354.188 16.8223C354.023 16.9869 353.873 17.1648 353.738 17.3542L355.459 19.0748H353.025C353.025 19.0748 352.967 19.532 352.967 19.7684V19.7712C352.967 20.0076 352.987 20.2392 353.025 20.4646H355.459L353.738 22.1851C354.009 22.5651 354.341 22.8972 354.721 23.1679L356.442 21.4473V23.8811C356.667 23.9188 356.898 23.9388 357.134 23.939H357.139C357.371 23.9388 357.603 23.9194 357.831 23.8811V21.4473L359.552 23.1683C359.742 23.0333 359.92 22.8827 360.085 22.7182H360.085C360.249 22.5535 360.4 22.3755 360.535 22.1859L358.814 20.4648H361.248C361.286 20.2395 361.306 20.0086 361.306 19.7728V19.7668C361.306 19.5349 361.286 19.3037 361.248 19.0751V19.0748H361.248ZM317.135 39.1848L323.917 28.6358H317.939C317.889 28.3345 317.864 27.9999 317.864 27.6314C317.864 27.2799 317.889 26.953 317.939 26.6515H327.609L327.735 26.9786L320.903 37.5522H327.307C327.358 37.8872 327.383 38.2301 327.383 38.5816C327.383 38.917 327.358 39.235 327.307 39.5363H317.261L317.135 39.1844V39.1848ZM336.7 33.4831C336.449 33.4499 336.131 33.4168 335.746 33.3829C335.361 33.3497 335.034 33.3327 334.767 33.3327C333.728 33.3327 332.937 33.5253 332.393 33.9104C331.849 34.2958 331.577 34.8815 331.577 35.6685C331.577 36.1708 331.669 36.5643 331.853 36.8488C332.037 37.1339 332.268 37.3511 332.544 37.5019C332.82 37.6526 333.126 37.7448 333.46 37.7783C333.795 37.8117 334.113 37.8284 334.415 37.8284C334.8 37.8284 335.197 37.8074 335.608 37.7655C336.018 37.7239 336.382 37.6609 336.7 37.5772V33.4831H336.7ZM336.7 31.0472C336.7 30.0589 336.449 29.3724 335.947 28.9873C335.444 28.6021 334.716 28.4095 333.762 28.4095C333.175 28.4095 332.627 28.4559 332.117 28.5479C331.612 28.6386 331.112 28.76 330.622 28.9117C330.304 28.3591 330.145 27.6982 330.145 26.9275C330.714 26.7436 331.341 26.6013 332.028 26.5008C332.715 26.4002 333.376 26.3499 334.013 26.3499C335.687 26.3499 336.959 26.7311 337.83 27.4929C338.701 28.2553 339.136 29.4733 339.136 31.1474V39.2097C338.55 39.3436 337.839 39.4816 337.001 39.624C336.155 39.767 335.298 39.8384 334.44 39.8376C333.619 39.8376 332.878 39.7625 332.217 39.6117C331.555 39.4607 330.994 39.2184 330.534 38.8831C330.073 38.5485 329.718 38.1214 329.466 37.6025C329.215 37.0833 329.09 36.4556 329.09 35.7187C329.09 34.9989 329.236 34.3667 329.529 33.8222C329.817 33.2843 330.226 32.8202 330.723 32.4661C331.225 32.1066 331.802 31.8383 332.455 31.6628C333.109 31.4868 333.795 31.3988 334.515 31.3988C335.051 31.3988 335.49 31.4116 335.834 31.4368C336.176 31.4617 336.465 31.491 336.7 31.5246V31.0473L336.7 31.0472ZM344.335 37.426C344.652 37.5432 344.981 37.6274 345.315 37.6773C345.65 37.7277 346.085 37.7528 346.621 37.7528C347.224 37.7528 347.776 37.6567 348.278 37.4642C348.781 37.272 349.212 36.9745 349.572 36.5724C349.932 36.1708 350.216 35.6646 350.426 35.0528C350.635 34.442 350.74 33.7181 350.74 32.8805C350.74 31.5411 350.492 30.4778 349.999 29.6908C349.504 28.9039 348.697 28.5104 347.575 28.5104C347.157 28.5104 346.754 28.5856 346.37 28.7365C345.984 28.8872 345.641 29.1133 345.34 29.4146C345.039 29.7159 344.796 30.0971 344.612 30.5575C344.427 31.0184 344.335 31.5662 344.335 32.2026V37.4264V37.4262L344.335 37.426ZM341.849 26.6513C342.019 26.6178 342.191 26.5928 342.364 26.5761C342.543 26.5595 342.723 26.5512 342.904 26.5512C343.071 26.5512 343.246 26.5599 343.431 26.5761C343.615 26.5932 343.791 26.6184 343.958 26.6515C343.975 26.6855 343.996 26.7897 344.021 26.9656C344.046 27.1415 344.071 27.3298 344.096 27.5305C344.122 27.7316 344.147 27.9246 344.172 28.1082C344.197 28.2927 344.21 28.4099 344.21 28.4601C344.377 28.1925 344.578 27.9327 344.812 27.6815C345.047 27.4303 345.327 27.2043 345.654 27.0036C345.98 26.8025 346.348 26.6436 346.759 26.5262C347.169 26.4091 347.625 26.35 348.128 26.35C348.881 26.35 349.58 26.4758 350.225 26.727C350.869 26.9786 351.421 27.3673 351.882 27.8948C352.342 28.4224 352.702 29.0922 352.962 29.904C353.221 30.7168 353.351 31.6752 353.351 32.7801C353.351 34.9902 352.752 36.7194 351.555 37.9666C350.358 39.2141 348.663 39.8376 346.469 39.8376C346.101 39.8376 345.724 39.8124 345.339 39.7622C344.954 39.7118 344.619 39.6447 344.335 39.5614V45.4637C344.122 45.4982 343.909 45.5233 343.694 45.539C343.468 45.5554 343.263 45.5639 343.079 45.5639C342.873 45.563 342.668 45.5547 342.464 45.539C342.257 45.5244 342.052 45.4993 341.848 45.4637V26.6515L341.849 26.6513Z" fill="#FF4A00"/>
</g>
<rect x="414.637" y="0.563965" width="151.725" height="60" rx="10" fill="#F8F8F8"/>
<g clip-path="url(#clip3_722_713)">
<path d="M455.259 33.5892C453.59 40.2856 446.807 44.361 440.11 42.6911C433.416 41.0216 429.34 34.2388 431.011 27.5429C432.679 20.8457 439.462 16.77 446.157 18.4395C452.854 20.109 456.929 26.8925 455.259 33.5892Z" fill="#F7931A"/>
<path d="M448.646 28.7845C448.895 27.1212 447.628 26.2271 445.897 25.6306L446.458 23.3775L445.087 23.0357L444.54 25.2294C444.18 25.1396 443.809 25.0548 443.441 24.9709L443.992 22.7627L442.621 22.4209L442.059 24.6732C441.761 24.6052 441.468 24.5381 441.184 24.4674L441.185 24.4603L439.294 23.9881L438.929 25.4529C438.929 25.4529 439.946 25.6861 439.925 25.7005C440.48 25.8392 440.581 26.2068 440.564 26.4982L439.924 29.0649C439.962 29.0747 440.012 29.0888 440.067 29.1106C440.021 29.0993 439.972 29.0868 439.922 29.0747L439.025 32.6704C438.957 32.8391 438.785 33.0922 438.396 32.9961C438.41 33.016 437.4 32.7473 437.4 32.7473L436.719 34.3172L438.503 34.7621C438.836 34.8453 439.161 34.9324 439.481 35.0144L438.914 37.2933L440.284 37.6351L440.846 35.3805C441.22 35.482 441.583 35.5758 441.939 35.6641L441.378 37.9082L442.75 38.25L443.317 35.9754C445.656 36.4179 447.415 36.2394 448.155 34.1242C448.751 32.4211 448.125 31.4387 446.895 30.7981C447.791 30.5915 448.466 30.002 448.646 28.7845ZM445.512 33.1785C445.089 34.8816 442.221 33.961 441.291 33.7301L442.044 30.711C442.974 30.943 445.955 31.4024 445.512 33.1785ZM445.937 28.7599C445.55 30.3091 443.163 29.522 442.389 29.329L443.072 26.5908C443.846 26.7837 446.339 27.1439 445.937 28.7599Z" fill="white"/>
<path d="M467.267 25.6286C468.28 25.6286 469.156 25.8102 469.892 26.1669C470.632 26.527 471.242 27.0122 471.731 27.6223C472.214 28.2356 472.573 28.9524 472.805 29.7738C473.036 30.5977 473.151 31.4832 473.151 32.4312C473.151 33.8874 472.885 35.2632 472.346 36.5601C471.807 37.8589 471.076 38.9854 470.147 39.9463C469.218 40.9061 468.121 41.6627 466.856 42.2217C465.593 42.7811 464.22 43.0607 462.746 43.0607C462.555 43.0607 462.22 43.0553 461.747 43.0455C461.273 43.0357 460.729 42.9869 460.12 42.9045C459.507 42.8189 458.858 42.6924 458.174 42.5229C457.489 42.3565 456.839 42.1233 456.227 41.8272L461.7 18.8291L466.603 18.0693L464.643 26.2305C465.062 26.0415 465.485 25.895 465.907 25.7884C466.329 25.6833 466.782 25.6286 467.267 25.6286ZM463.155 39.1717C463.893 39.1717 464.589 38.9901 465.242 38.6335C465.898 38.2764 466.463 37.7944 466.937 37.194C467.411 36.5909 467.786 35.9116 468.059 35.1527C468.333 34.3937 468.471 33.6019 468.471 32.7781C468.471 31.766 468.302 30.9766 467.965 30.4059C467.628 29.8375 467.004 29.5516 466.098 29.5516C465.801 29.5516 465.419 29.6082 464.944 29.7094C464.469 29.8168 464.043 30.0399 463.661 30.3754L461.575 39.0424C461.7 39.0647 461.812 39.0858 461.907 39.1057C462 39.1272 462.102 39.1424 462.205 39.153C462.313 39.1651 462.437 39.1714 462.586 39.1714C462.736 39.1714 462.923 39.1717 463.155 39.1717Z" fill="#4D4D4D"/>
<path d="M478.235 42.6205H473.553L477.507 25.9813H482.221L478.235 42.6205ZM480.514 23.954C479.86 23.954 479.267 23.7595 478.742 23.3696C478.212 22.9822 477.949 22.3857 477.949 21.5818C477.949 21.1396 478.039 20.7248 478.217 20.3334C478.398 19.9427 478.634 19.6064 478.93 19.3205C479.226 19.0369 479.569 18.8103 479.958 18.6396C480.349 18.4717 480.766 18.3877 481.209 18.3877C481.862 18.3877 482.452 18.5822 482.98 18.9721C483.505 19.3639 483.77 19.9603 483.77 20.7599C483.77 21.2037 483.68 21.6201 483.501 22.0107C483.322 22.4013 483.086 22.7376 482.79 23.0236C482.496 23.3075 482.151 23.5333 481.762 23.7025C481.371 23.8732 480.956 23.954 480.514 23.954Z" fill="#4D4D4D"/>
<path d="M486.325 21.8354L491.229 21.0757L490.025 25.9803H495.277L494.329 29.8388H489.108L487.717 35.6591C487.589 36.1442 487.517 36.5973 487.496 37.0184C487.473 37.4414 487.527 37.8047 487.653 38.1106C487.779 38.4172 488.005 38.6535 488.333 38.8207C488.66 38.9906 489.127 39.0762 489.741 39.0762C490.246 39.0762 490.738 39.0281 491.214 38.9328C491.687 38.8391 492.166 38.7086 492.651 38.5379L493 42.1457C492.368 42.3777 491.682 42.5773 490.944 42.7453C490.205 42.9156 489.329 42.9976 488.318 42.9976C486.863 42.9976 485.735 42.7816 484.932 42.3515C484.129 41.9183 483.562 41.3265 483.223 40.5773C482.888 39.8309 482.738 38.9703 482.78 38.0008C482.824 37.029 482.97 36.0075 483.223 34.9317L486.325 21.8354Z" fill="#4D4D4D"/>
<path d="M495.071 35.9758C495.071 34.5426 495.303 33.1911 495.766 31.9259C496.229 30.6595 496.896 29.5521 497.761 28.6017C498.623 27.656 499.674 26.9068 500.91 26.3568C502.141 25.81 503.518 25.5342 505.037 25.5342C505.987 25.5342 506.836 25.624 507.583 25.8041C508.333 25.9857 509.011 26.2205 509.625 26.515L508.01 30.1868C507.588 30.0158 507.15 29.865 506.698 29.7283C506.244 29.5888 505.691 29.5216 505.037 29.5216C503.474 29.5216 502.239 30.0603 501.319 31.1341C500.403 32.2087 499.942 33.6551 499.942 35.4696C499.942 36.5449 500.174 37.4145 500.639 38.0797C501.103 38.7449 501.959 39.0758 503.201 39.0758C503.814 39.0758 504.406 39.0117 504.973 38.8867C505.544 38.7602 506.048 38.6008 506.492 38.4125L506.842 42.1765C506.25 42.4062 505.597 42.6136 504.88 42.7952C504.162 42.9706 503.308 43.0616 502.317 43.0616C501.009 43.0616 499.901 42.8702 498.995 42.4933C498.089 42.1105 497.34 41.6023 496.75 40.9585C496.157 40.3132 495.732 39.5597 495.468 38.6949C495.205 37.8309 495.071 36.9231 495.071 35.9758Z" fill="#4D4D4D"/>
<path d="M515.872 43.0616C514.754 43.0616 513.783 42.8913 512.96 42.5542C512.139 42.2171 511.459 41.7441 510.921 41.1308C510.382 40.5207 509.979 39.7976 509.703 38.9644C509.427 38.1316 509.294 37.2094 509.294 36.1989C509.294 34.9313 509.497 33.6641 509.909 32.4005C510.318 31.1341 510.926 29.9962 511.729 28.9849C512.527 27.972 513.511 27.1439 514.67 26.4982C515.827 25.8568 517.158 25.5342 518.654 25.5342C519.751 25.5342 520.716 25.7049 521.551 26.042C522.382 26.3783 523.066 26.8553 523.607 27.4654C524.143 28.0787 524.549 28.7986 524.823 29.6329C525.098 30.4642 525.234 31.3888 525.234 32.4001C525.234 33.6637 525.033 34.9309 524.635 36.1985C524.236 37.4598 523.644 38.6004 522.863 39.614C522.083 40.6254 521.108 41.4531 519.937 42.096C518.768 42.739 517.411 43.0616 515.872 43.0616ZM518.212 29.522C517.518 29.522 516.904 29.7236 516.379 30.1216C515.851 30.5243 515.408 31.0306 515.051 31.6411C514.69 32.2544 514.423 32.9231 514.242 33.6501C514.063 34.3786 513.975 35.0672 513.975 35.7215C513.975 36.7774 514.145 37.5996 514.48 38.1914C514.819 38.7801 515.429 39.0762 516.315 39.0762C517.012 39.0762 517.622 38.8762 518.151 38.4738C518.675 38.0742 519.118 37.5676 519.478 36.9559C519.837 36.3457 520.107 35.675 520.288 34.9469C520.464 34.2208 520.555 33.5282 520.555 32.8751C520.555 31.822 520.385 30.9978 520.047 30.4068C519.71 29.8181 519.097 29.522 518.212 29.522Z" fill="#4D4D4D"/>
<path d="M530.336 42.6205H525.65L529.604 25.9813H534.321L530.336 42.6205ZM532.611 23.954C531.958 23.954 531.366 23.7595 530.841 23.3696C530.314 22.9822 530.049 22.3857 530.049 21.5818C530.049 21.1396 530.14 20.7248 530.318 20.3334C530.497 19.9427 530.735 19.6064 531.031 19.3205C531.325 19.0369 531.671 18.8103 532.059 18.6396C532.448 18.4717 532.864 18.3877 533.306 18.3877C533.961 18.3877 534.552 18.5822 535.079 18.9721C535.606 19.3639 535.872 19.9603 535.872 20.7599C535.872 21.2037 535.777 21.6201 535.601 22.0107C535.424 22.4013 535.186 22.7376 534.891 23.0236C534.594 23.3075 534.252 23.5333 533.863 23.7025C533.471 23.8732 533.056 23.954 532.611 23.954Z" fill="#4D4D4D"/>
<path d="M537.695 26.7379C538.051 26.634 538.448 26.509 538.879 26.373C539.312 26.2371 539.796 26.1105 540.337 25.9965C540.872 25.8789 541.475 25.7836 542.139 25.7098C542.803 25.6344 543.559 25.5977 544.399 25.5977C546.869 25.5977 548.571 26.3168 549.511 27.7508C550.45 29.1847 550.612 31.1472 550.003 33.6346L547.849 42.6189H543.136L545.223 33.8237C545.351 33.2745 545.451 32.7436 545.524 32.2249C545.599 31.7108 545.595 31.2577 545.508 30.8656C545.424 30.4781 545.228 30.1609 544.924 29.9152C544.615 29.6734 544.148 29.5519 543.515 29.5519C542.905 29.5519 542.283 29.6175 541.649 29.7441L538.58 42.6185H533.865L537.695 26.7379Z" fill="#4D4D4D"/>
</g>
<rect y="76.564" width="125.939" height="60" rx="10" fill="#F8F8F8"/>
<g clip-path="url(#clip4_722_713)">
<path d="M51.0085 99.1768H45.8274C45.4728 99.1768 45.1713 99.4343 45.116 99.7843L43.0206 113.07C42.9789 113.332 43.1819 113.568 43.4478 113.568H45.9213C46.2759 113.568 46.5774 113.311 46.6327 112.96L47.1978 109.377C47.2524 109.026 47.5547 108.768 47.9085 108.768H49.5486C52.9615 108.768 54.9312 107.117 55.4456 103.844C55.6774 102.412 55.4554 101.287 54.785 100.499C54.0486 99.6343 52.7425 99.1768 51.0085 99.1768ZM51.6062 104.029C51.3228 105.888 49.9024 105.888 48.5289 105.888H47.7471L48.2956 102.416C48.3282 102.206 48.51 102.052 48.7221 102.052H49.0804C50.016 102.052 50.8986 102.052 51.3547 102.585C51.6266 102.903 51.71 103.376 51.6062 104.029Z" fill="#253B80"/>
<path d="M66.4956 103.969H64.0145C63.8031 103.969 63.6206 104.124 63.588 104.334L63.4781 105.028L63.3047 104.776C62.7675 103.996 61.5698 103.736 60.3744 103.736C57.6327 103.736 55.291 105.812 54.835 108.725C54.5978 110.178 54.935 111.568 55.7592 112.537C56.5153 113.428 57.5971 113.799 58.8842 113.799C61.0933 113.799 62.3183 112.378 62.3183 112.378L62.2077 113.068C62.166 113.331 62.3691 113.568 62.6334 113.568H64.8683C65.2236 113.568 65.5236 113.31 65.5797 112.959L66.9206 104.468C66.963 104.206 66.7607 103.969 66.4956 103.969ZM63.0372 108.798C62.7978 110.215 61.6728 111.167 60.238 111.167C59.5175 111.167 58.9418 110.936 58.5721 110.498C58.2054 110.063 58.066 109.444 58.1827 108.755C58.4062 107.349 59.5501 106.367 60.963 106.367C61.6675 106.367 62.2403 106.601 62.6175 107.043C62.9956 107.489 63.1456 108.112 63.0372 108.798Z" fill="#253B80"/>
<path d="M79.709 103.969H77.2158C76.9779 103.969 76.7544 104.087 76.6196 104.285L73.1809 109.35L71.7234 104.483C71.6317 104.178 71.3506 103.969 71.0325 103.969H68.5825C68.2847 103.969 68.0779 104.26 68.1726 104.54L70.9188 112.6L68.337 116.244C68.134 116.531 68.3385 116.926 68.6893 116.926H71.1794C71.4158 116.926 71.637 116.811 71.7711 116.617L80.0635 104.647C80.262 104.361 80.0582 103.969 79.709 103.969Z" fill="#253B80"/>
<path d="M87.9635 99.1768H82.7817C82.4279 99.1768 82.1264 99.4343 82.0711 99.7843L79.9757 113.07C79.934 113.332 80.137 113.568 80.4014 113.568H83.0605C83.3075 113.568 83.5188 113.388 83.5575 113.143L84.1522 109.377C84.2067 109.026 84.509 108.768 84.8628 108.768H86.5022C89.9158 108.768 91.8847 107.117 92.3999 103.844C92.6325 102.412 92.409 101.287 91.7385 100.499C91.0029 99.6343 89.6976 99.1768 87.9635 99.1768ZM88.5613 104.029C88.2787 105.888 86.8582 105.888 85.484 105.888H84.7029L85.2522 102.416C85.2847 102.206 85.465 102.052 85.6779 102.052H86.0363C86.9711 102.052 87.8544 102.052 88.3105 102.585C88.5825 102.903 88.665 103.376 88.5613 104.029Z" fill="#179BD7"/>
<path d="M103.45 103.969H100.97C100.757 103.969 100.576 104.124 100.545 104.334L100.435 105.028L100.26 104.776C99.7233 103.996 98.5264 103.736 97.3309 103.736C94.5892 103.736 92.2483 105.812 91.7923 108.725C91.5559 110.178 91.8915 111.568 92.7158 112.537C93.4733 113.428 94.5536 113.799 95.8408 113.799C98.0498 113.799 99.2748 112.378 99.2748 112.378L99.1642 113.068C99.1226 113.331 99.3256 113.568 99.5915 113.568H101.826C102.179 113.568 102.481 113.31 102.536 112.959L103.878 104.468C103.919 104.206 103.716 103.969 103.45 103.969ZM99.9915 108.798C99.7536 110.215 98.6271 111.167 97.1923 111.167C96.4733 111.167 95.8961 110.936 95.5264 110.498C95.1597 110.063 95.0218 109.444 95.137 108.755C95.362 107.349 96.5044 106.367 97.9173 106.367C98.6218 106.367 99.1945 106.601 99.5718 107.043C99.9514 107.489 100.101 108.112 99.9915 108.798Z" fill="#179BD7"/>
<path d="M106.375 99.5414L104.249 113.07C104.207 113.332 104.41 113.569 104.674 113.569H106.812C107.168 113.569 107.469 113.311 107.524 112.96L109.621 99.6755C109.662 99.4134 109.459 99.1763 109.195 99.1763H106.801C106.59 99.177 106.408 99.3316 106.375 99.5414Z" fill="#179BD7"/>
<path d="M21.5045 116.15L21.9007 113.634L21.0181 113.613H16.8037L19.7325 95.0429C19.7416 94.9868 19.7711 94.9345 19.8143 94.8974C19.8575 94.8603 19.9128 94.8398 19.9704 94.8398H27.0764C29.4355 94.8398 31.0636 95.3308 31.9136 96.2997C32.312 96.7542 32.5658 97.2292 32.6886 97.752C32.8173 98.3004 32.8196 98.9558 32.6939 99.755L32.6848 99.8133V100.325L33.0833 100.551C33.4189 100.729 33.6855 100.933 33.8901 101.166C34.231 101.555 34.4514 102.049 34.5446 102.635C34.6408 103.237 34.609 103.953 34.4514 104.765C34.2696 105.698 33.9757 106.511 33.5787 107.176C33.2136 107.789 32.7484 108.297 32.1961 108.691C31.6689 109.066 31.0423 109.35 30.334 109.532C29.6476 109.71 28.8651 109.8 28.0067 109.8H27.4537C27.0583 109.8 26.6742 109.943 26.3726 110.198C26.0704 110.459 25.8704 110.815 25.809 111.204L25.7673 111.431L25.0673 115.866L25.0355 116.029C25.0272 116.081 25.0128 116.107 24.9916 116.124C24.9726 116.14 24.9454 116.15 24.9189 116.15H21.5045Z" fill="#253B80"/>
<path d="M33.4605 99.8721C33.4392 100.008 33.415 100.146 33.3877 100.289C32.4506 105.1 29.2446 106.762 25.1499 106.762H23.065C22.5643 106.762 22.1423 107.126 22.0643 107.62L20.9968 114.389L20.6946 116.308C20.6438 116.633 20.8938 116.925 21.2211 116.925H24.9188C25.3567 116.925 25.7286 116.607 25.7976 116.175L25.8339 115.987L26.5302 111.569L26.5749 111.327C26.643 110.893 27.0158 110.575 27.4536 110.575H28.0067C31.5892 110.575 34.3938 109.121 35.2135 104.911C35.5559 103.153 35.3786 101.685 34.4726 100.652C34.1983 100.341 33.8582 100.083 33.4605 99.8721Z" fill="#179BD7"/>
<path d="M32.4804 99.4814C32.3372 99.4397 32.1895 99.4018 32.0379 99.3677C31.8857 99.3344 31.7296 99.3049 31.569 99.2791C31.0069 99.1882 30.391 99.145 29.7311 99.145H24.1614C24.0243 99.145 23.894 99.1761 23.7773 99.2321C23.5205 99.3556 23.3296 99.5988 23.2834 99.8965L22.0985 107.401L22.0645 107.62C22.1425 107.126 22.5645 106.762 23.0652 106.762H25.1501C29.2448 106.762 32.4508 105.1 33.3879 100.289C33.416 100.147 33.4395 100.008 33.4607 99.8723C33.2235 99.7465 32.9667 99.639 32.6902 99.5473C32.622 99.5246 32.5516 99.5026 32.4804 99.4814Z" fill="#222D65"/>
<path d="M23.2833 99.8965C23.3295 99.5988 23.5204 99.3556 23.7773 99.2329C23.8947 99.1768 24.0242 99.1458 24.1614 99.1458H29.7311C30.3909 99.1458 31.0068 99.189 31.5689 99.2799C31.7295 99.3056 31.8856 99.3352 32.0379 99.3685C32.1894 99.4026 32.3371 99.4405 32.4803 99.4821C32.5515 99.5034 32.622 99.5253 32.6909 99.5473C32.9674 99.639 33.2242 99.7473 33.4614 99.8723C33.7401 98.0943 33.4591 96.8837 32.4977 95.7875C31.4379 94.5806 29.525 94.064 27.0773 94.064H19.9712C19.4712 94.064 19.0447 94.4276 18.9674 94.9223L16.0076 113.684C15.9492 114.055 16.2356 114.39 16.6098 114.39H20.997L22.0985 107.401L23.2833 99.8965Z" fill="#253B80"/>
</g>
<rect x="141.939" y="76.564" width="72.625" height="60" rx="10" fill="#F8F8F8"/>
<g clip-path="url(#clip5_722_713)">
<path d="M183.487 96.7261H172.598V116.29H183.487V96.7261Z" fill="#FF5A00"/>
<path d="M173.323 106.508C173.323 102.533 175.191 99.0052 178.059 96.7259C175.948 95.0667 173.287 94.064 170.383 94.064C163.505 94.064 157.939 99.6294 157.939 106.508C157.939 113.386 163.505 118.951 170.383 118.951C173.287 118.951 175.948 117.948 178.059 116.289C175.187 114.042 173.323 110.482 173.323 106.508Z" fill="#EB001B"/>
<path d="M198.178 106.508C198.178 113.386 192.612 118.951 185.734 118.951C182.831 118.951 180.169 117.948 178.059 116.289C180.962 114.006 182.794 110.482 182.794 106.508C182.794 102.533 180.926 99.0052 178.059 96.7259C180.165 95.0667 182.827 94.064 185.73 94.064C192.612 94.064 198.178 99.6656 198.178 106.508Z" fill="#F79E1B"/>
</g>
<rect x="230.564" y="76.564" width="93.5984" height="60" rx="10" fill="#F8F8F8"/>
<g clip-path="url(#clip6_722_713)">
<path d="M286.676 96.5947C282.307 96.5947 278.402 98.8594 278.402 103.044C278.402 107.842 285.327 108.174 285.327 110.584C285.327 111.599 284.164 112.508 282.178 112.508C279.358 112.508 277.251 111.238 277.251 111.238L276.349 115.461C276.349 115.461 278.777 116.533 282 116.533C286.777 116.533 290.536 114.157 290.536 109.901C290.536 104.831 283.582 104.509 283.582 102.272C283.582 101.477 284.537 100.605 286.518 100.605C288.753 100.605 290.577 101.529 290.577 101.529L291.459 97.4507C291.459 97.4507 289.475 96.5947 286.676 96.5947ZM246.701 96.9025L246.595 97.5181C246.595 97.5181 248.433 97.8545 250.089 98.5256C252.221 99.2951 252.373 99.7431 252.732 101.134L256.644 116.216H261.888L269.967 96.9025H264.735L259.544 110.034L257.425 98.9031C257.231 97.6292 256.247 96.9025 255.042 96.9025H246.701ZM272.071 96.9025L267.967 116.216H272.956L277.046 96.9025H272.071ZM299.899 96.9025C298.696 96.9025 298.058 97.5466 297.591 98.6722L290.281 116.216H295.513L296.525 113.292H302.9L303.515 116.216H308.132L304.104 96.9025H299.899ZM300.579 102.12L302.13 109.368H297.975L300.579 102.12Z" fill="#1434CB"/>
</g>
<rect x="340.163" y="76.564" width="94.9541" height="60" rx="10" fill="#F8F8F8"/>
<g clip-path="url(#clip7_722_713)">
<path d="M385.939 106.277V113.606H383.614V95.5081H389.78C390.516 95.4927 391.247 95.6232 391.933 95.8921C392.618 96.161 393.243 96.563 393.772 97.0748C394.307 97.5555 394.732 98.1451 395.02 98.8039C395.307 99.4627 395.451 100.175 395.44 100.894C395.455 101.617 395.314 102.334 395.026 102.997C394.739 103.66 394.311 104.253 393.772 104.735C392.694 105.763 391.363 106.277 389.78 106.276H385.939V106.277ZM385.939 97.7361V104.054H389.837C390.265 104.066 390.69 103.99 391.086 103.829C391.482 103.667 391.84 103.425 392.138 103.118C392.433 102.83 392.668 102.487 392.829 102.107C392.989 101.727 393.072 101.319 393.072 100.906C393.072 100.494 392.989 100.086 392.829 99.7061C392.668 99.3262 392.433 98.9824 392.138 98.695C391.844 98.381 391.487 98.1331 391.091 97.9675C390.694 97.802 390.267 97.7226 389.837 97.7347H385.939V97.7361Z" fill="#5F6368"/>
<path d="M400.797 100.819C402.515 100.819 403.872 101.278 404.866 102.196C405.861 103.115 406.357 104.374 406.356 105.974V113.605H404.133V111.887H404.032C403.069 113.302 401.789 114.01 400.191 114.01C398.827 114.01 397.685 113.605 396.767 112.797C396.326 112.426 395.974 111.961 395.735 111.436C395.497 110.912 395.379 110.341 395.389 109.764C395.389 108.483 395.874 107.464 396.842 106.707C397.81 105.951 399.103 105.572 400.721 105.57C402.101 105.57 403.238 105.822 404.131 106.328V105.796C404.134 105.404 404.049 105.015 403.883 104.659C403.717 104.303 403.474 103.989 403.171 103.739C402.556 103.184 401.755 102.881 400.927 102.891C399.628 102.891 398.601 103.439 397.844 104.534L395.797 103.245C396.923 101.627 398.59 100.819 400.797 100.819ZM397.789 109.815C397.788 110.111 397.857 110.403 397.991 110.667C398.125 110.93 398.32 111.158 398.56 111.331C399.075 111.736 399.713 111.95 400.367 111.938C401.348 111.936 402.288 111.546 402.982 110.852C403.752 110.127 404.137 109.276 404.137 108.3C403.412 107.723 402.401 107.434 401.105 107.434C400.16 107.434 399.373 107.661 398.742 108.117C398.105 108.579 397.789 109.141 397.789 109.815Z" fill="#5F6368"/>
<path d="M419.122 101.223L411.359 119.064H408.959L411.839 112.821L406.735 101.223H409.262L412.951 110.118H413.002L416.59 101.223H419.122Z" fill="#5F6368"/>
<path d="M376.544 104.698C376.545 103.989 376.485 103.282 376.365 102.583H366.56V106.588H372.176C372.061 107.227 371.818 107.837 371.461 108.38C371.104 108.923 370.641 109.388 370.099 109.747V112.346H373.451C375.413 110.537 376.544 107.861 376.544 104.698Z" fill="#4285F4"/>
<path d="M366.56 114.858C369.365 114.858 371.728 113.936 373.451 112.348L370.099 109.749C369.166 110.381 367.965 110.742 366.56 110.742C363.848 110.742 361.546 108.914 360.723 106.451H357.271V109.129C358.136 110.851 359.463 112.299 361.103 113.31C362.743 114.322 364.633 114.858 366.56 114.858Z" fill="#34A853"/>
<path d="M360.723 106.451C360.288 105.16 360.288 103.762 360.723 102.471V99.7925H357.271C356.543 101.241 356.164 102.84 356.164 104.461C356.164 106.082 356.543 107.681 357.271 109.129L360.723 106.451Z" fill="#FBBC04"/>
<path d="M366.56 98.1796C368.042 98.1553 369.475 98.7155 370.548 99.7391L373.516 96.7717C371.634 95.0043 369.141 94.034 366.56 94.0642C364.633 94.0642 362.743 94.6 361.103 95.6115C359.463 96.623 358.136 98.0706 357.271 99.7925L360.723 102.471C361.546 100.008 363.848 98.1796 366.56 98.1796Z" fill="#EA4335"/>
</g>
<rect x="451.117" y="76.564" width="92.8944" height="60" rx="10" fill="#F8F8F8"/>
<g clip-path="url(#clip8_722_713)">
<path d="M478.249 97.2871C477.536 98.1315 476.394 98.7976 475.252 98.7024C475.109 97.5606 475.668 96.3475 476.323 95.5982C477.036 94.73 478.285 94.1115 479.296 94.064C479.415 95.2533 478.951 96.4189 478.249 97.2871ZM479.284 98.9284C477.631 98.8332 476.216 99.868 475.431 99.868C474.634 99.868 473.432 98.976 472.124 98.9997C470.423 99.0235 468.842 99.9869 467.973 101.521C466.189 104.59 467.51 109.133 469.234 111.631C470.079 112.867 471.089 114.223 472.422 114.176C473.682 114.128 474.182 113.355 475.704 113.355C477.238 113.355 477.678 114.176 479.01 114.152C480.39 114.128 481.258 112.915 482.103 111.678C483.066 110.275 483.459 108.907 483.482 108.836C483.459 108.812 480.818 107.801 480.794 104.756C480.771 102.211 482.876 100.998 482.971 100.926C481.782 99.1662 479.926 98.976 479.284 98.9284ZM488.834 95.4793V114.021H491.713V107.682H495.697C499.336 107.682 501.893 105.184 501.893 101.569C501.893 97.9531 499.384 95.4793 495.792 95.4793H488.834ZM491.713 97.9055H495.031C497.529 97.9055 498.956 99.2376 498.956 101.581C498.956 103.924 497.529 105.268 495.019 105.268H491.713V97.9055ZM507.15 114.164C508.958 114.164 510.635 113.248 511.396 111.797H511.456V114.021H514.12V104.792C514.12 102.116 511.979 100.391 508.685 100.391C505.628 100.391 503.368 102.14 503.285 104.542H505.878C506.092 103.4 507.15 102.651 508.601 102.651C510.362 102.651 511.349 103.472 511.349 104.982V106.005L507.757 106.219C504.415 106.421 502.607 107.789 502.607 110.168C502.607 112.57 504.474 114.164 507.15 114.164ZM507.923 111.964C506.389 111.964 505.414 111.226 505.414 110.096C505.414 108.931 506.353 108.253 508.149 108.146L511.349 107.944V108.99C511.349 110.727 509.874 111.964 507.923 111.964ZM517.676 119.064C520.483 119.064 521.803 117.994 522.957 114.747L528.011 100.57H525.086L521.696 111.524H521.637L518.247 100.57H515.238L520.114 114.069L519.853 114.889C519.412 116.281 518.699 116.816 517.426 116.816C517.2 116.816 516.76 116.792 516.582 116.769V118.993C516.748 119.04 517.462 119.064 517.676 119.064Z" fill="black"/>
</g>
<rect x="560.011" y="76.564" width="162.316" height="60" rx="10" fill="#F8F8F8"/>
<g clip-path="url(#clip9_722_713)">
<path fill-rule="evenodd" clip-rule="evenodd" d="M627.433 113.62C622.617 117.174 615.635 119.064 609.623 119.064C601.197 119.064 593.609 115.949 587.867 110.764C587.417 110.357 587.818 109.801 588.36 110.116C594.555 113.721 602.217 115.892 610.129 115.892C615.466 115.892 621.334 114.784 626.733 112.494C627.547 112.149 628.23 113.031 627.433 113.62Z" fill="#F79C34"/>
<path fill-rule="evenodd" clip-rule="evenodd" d="M629.438 111.332C628.821 110.543 625.366 110.958 623.813 111.144C623.343 111.201 623.27 110.79 623.694 110.492C626.451 108.556 630.968 109.115 631.493 109.763C632.022 110.417 631.353 114.946 628.771 117.107C628.373 117.439 627.995 117.262 628.171 116.824C628.753 115.371 630.054 112.122 629.438 111.332Z" fill="#F79C34"/>
<path fill-rule="evenodd" clip-rule="evenodd" d="M623.923 96.8131V94.932C623.924 94.6456 624.14 94.4551 624.399 94.4558L632.832 94.4551C633.101 94.4551 633.318 94.6507 633.318 94.9298V96.5429C633.316 96.8138 633.087 97.1667 632.684 97.7271L628.315 103.964C629.936 103.926 631.651 104.169 633.125 104.997C633.457 105.184 633.547 105.46 633.572 105.731V107.739C633.572 108.016 633.27 108.335 632.951 108.169C630.356 106.809 626.912 106.661 624.041 108.185C623.748 108.342 623.442 108.026 623.442 107.749V105.841C623.442 105.536 623.448 105.013 623.756 104.548L628.816 97.2878L624.41 97.2871C624.14 97.2871 623.924 97.0951 623.923 96.8131Z" fill="#333E47"/>
<path fill-rule="evenodd" clip-rule="evenodd" d="M593.163 108.564H590.598C590.354 108.549 590.159 108.366 590.139 108.131L590.141 94.964C590.141 94.7011 590.362 94.4907 590.636 94.4907L593.025 94.49C593.275 94.5025 593.476 94.6915 593.491 94.9322V96.6509H593.54C594.162 94.9883 595.335 94.2124 596.916 94.2124C598.52 94.2124 599.526 94.9883 600.245 96.6509C600.867 94.9883 602.28 94.2124 603.789 94.2124C604.866 94.2124 606.04 94.6561 606.758 95.6535C607.572 96.7624 607.405 98.3689 607.405 99.7819L607.402 108.091C607.402 108.353 607.182 108.564 606.908 108.564H604.346C604.088 108.548 603.885 108.344 603.885 108.092L603.885 101.112C603.885 100.558 603.932 99.1728 603.812 98.6464C603.621 97.759 603.047 97.5095 602.305 97.5095C601.682 97.5095 601.035 97.9252 600.771 98.5896C600.508 99.2555 600.532 100.363 600.532 101.112V108.091C600.532 108.353 600.311 108.564 600.037 108.564H597.475C597.217 108.548 597.014 108.344 597.014 108.092L597.011 101.112C597.011 99.6431 597.251 97.4829 595.431 97.4829C593.587 97.4829 593.659 99.5877 593.659 101.112L593.658 108.091C593.658 108.353 593.437 108.564 593.163 108.564Z" fill="#333E47"/>
<path fill-rule="evenodd" clip-rule="evenodd" d="M640.601 96.9004C638.709 96.9004 638.59 99.4763 638.59 101.083C638.59 102.691 638.566 106.127 640.578 106.127C642.565 106.127 642.661 103.356 642.661 101.666C642.661 100.558 642.613 99.2275 642.277 98.1747C641.99 97.26 641.415 96.9004 640.601 96.9004ZM640.578 94.2124C644.385 94.2124 646.444 97.4829 646.444 101.639C646.444 105.655 644.17 108.842 640.578 108.842C636.842 108.842 634.806 105.572 634.806 101.5C634.806 97.3988 636.865 94.2124 640.578 94.2124Z" fill="#333E47"/>
<path fill-rule="evenodd" clip-rule="evenodd" d="M651.383 108.564H648.826C648.57 108.548 648.366 108.344 648.366 108.092L648.362 94.9204C648.384 94.679 648.597 94.4907 648.855 94.4907L651.234 94.49C651.459 94.5018 651.643 94.6539 651.691 94.8584V96.8724H651.739C652.458 95.071 653.463 94.2124 655.234 94.2124C656.384 94.2124 657.51 94.628 658.228 95.7642C658.898 96.817 658.898 98.5896 658.898 99.8646V108.15C658.87 108.383 658.661 108.564 658.407 108.564H655.835C655.598 108.55 655.406 108.375 655.378 108.15V101.002C655.378 99.5604 655.547 97.4541 653.774 97.4541C653.152 97.4541 652.577 97.8698 652.289 98.5069C651.93 99.3109 651.882 100.114 651.882 101.002V108.091C651.877 108.353 651.656 108.564 651.383 108.564Z" fill="#333E47"/>
<path fill-rule="evenodd" clip-rule="evenodd" d="M619.786 108.532C619.617 108.684 619.372 108.694 619.181 108.591C618.329 107.883 618.176 107.556 617.71 106.882C616.302 108.316 615.305 108.746 613.48 108.746C611.321 108.746 609.641 107.413 609.641 104.748C609.641 102.665 610.769 101.249 612.377 100.555C613.768 99.9441 615.712 99.8334 617.201 99.6665V99.3336C617.201 98.7215 617.248 98.001 616.888 97.4731C616.576 97.0006 615.976 96.8065 615.449 96.8065C614.47 96.8065 613.601 97.3077 613.387 98.3465C613.342 98.5776 613.173 98.8072 612.941 98.819L610.454 98.5495C610.245 98.5015 610.011 98.3332 610.071 98.0128C610.636 95.0383 613.292 94.111 615.706 94.0859H615.897C617.133 94.1014 618.711 94.4403 619.672 95.3624C620.921 96.5289 620.8 98.0837 620.8 99.778V103.774C620.8 104.977 621.299 105.504 621.768 106.151C621.933 106.385 621.969 106.662 621.76 106.834C621.236 107.273 620.305 108.081 619.793 108.538L619.786 108.532ZM617.201 102.277C617.201 103.277 617.224 104.109 616.721 104.998C616.312 105.72 615.664 106.164 614.944 106.164C613.961 106.164 613.385 105.415 613.385 104.304C613.385 102.118 615.344 101.721 617.201 101.721V102.277Z" fill="#333E47"/>
<path fill-rule="evenodd" clip-rule="evenodd" d="M586.157 108.532C585.987 108.684 585.742 108.694 585.551 108.591C584.698 107.883 584.546 107.556 584.081 106.882C582.672 108.316 581.675 108.746 579.851 108.746C577.692 108.746 576.011 107.413 576.011 104.748C576.011 102.665 577.139 101.249 578.747 100.555C580.139 99.9441 582.083 99.8334 583.57 99.6665V99.3336C583.57 98.7215 583.619 98.001 583.259 97.4731C582.947 97.0006 582.346 96.8065 581.819 96.8065C580.84 96.8065 579.97 97.3077 579.757 98.3465C579.713 98.5776 579.544 98.8072 579.311 98.819L576.825 98.5495C576.614 98.5015 576.381 98.3332 576.442 98.0128C577.005 95.0383 579.662 94.111 582.077 94.0859H582.267C583.503 94.1014 585.082 94.4403 586.043 95.3624C587.291 96.5289 587.17 98.0837 587.17 99.778V103.774C587.17 104.977 587.67 105.504 588.139 106.151C588.302 106.385 588.34 106.662 588.131 106.834C587.606 107.273 586.675 108.081 586.163 108.538L586.157 108.532ZM583.57 102.277C583.57 103.277 583.595 104.109 583.09 104.998C582.683 105.72 582.035 106.164 581.314 106.164C580.331 106.164 579.755 105.415 579.755 104.304C579.755 102.118 581.715 101.721 583.57 101.721V102.277Z" fill="#333E47"/>
<path fill-rule="evenodd" clip-rule="evenodd" d="M693.966 113.288C693.966 112.954 693.966 112.654 693.966 112.32C693.966 112.045 694.102 111.855 694.389 111.872C694.925 111.948 695.683 112.024 696.221 111.914C696.924 111.768 697.428 111.269 697.726 110.586C698.147 109.625 698.425 108.85 698.601 108.341L693.264 95.1203C693.174 94.8959 693.147 94.4795 693.595 94.4795H695.461C695.817 94.4795 695.961 94.7054 696.041 94.9269L699.91 105.666L703.604 94.9269C703.679 94.7069 703.83 94.4795 704.183 94.4795H705.943C706.388 94.4795 706.363 94.8951 706.274 95.1203L700.98 108.754C700.295 110.569 699.382 113.459 697.327 113.961C696.296 114.23 694.996 114.133 694.233 113.813C694.04 113.717 693.966 113.458 693.966 113.288Z" fill="#333E47"/>
<path fill-rule="evenodd" clip-rule="evenodd" d="M691.478 107.759C691.478 108.005 691.277 108.206 691.029 108.206H689.714C689.429 108.206 689.235 108.001 689.199 107.759L689.067 106.863C688.462 107.375 687.72 107.825 686.916 108.138C685.368 108.739 683.585 108.838 682.073 107.909C680.979 107.238 680.399 105.926 680.399 104.573C680.399 103.526 680.722 102.488 681.437 101.735C682.392 100.705 683.775 100.199 685.446 100.199C686.455 100.199 687.899 100.318 688.95 100.661V98.859C688.95 97.0266 688.178 96.2337 686.144 96.2337C684.589 96.2337 683.4 96.4685 681.745 96.9831C681.48 96.9919 681.325 96.7904 681.325 96.5445V95.5169C681.325 95.2703 681.535 95.0318 681.763 94.9595C682.945 94.4442 684.62 94.123 686.4 94.064C688.72 94.064 691.478 94.5874 691.478 98.1562V107.759ZM688.95 105.128V102.409C688.067 102.167 686.606 102.067 686.04 102.067C685.147 102.067 684.169 102.278 683.658 102.828C683.276 103.231 683.103 103.81 683.103 104.369C683.103 105.093 683.353 105.819 683.938 106.177C684.617 106.639 685.671 106.583 686.661 106.302C687.613 106.031 688.506 105.554 688.95 105.128Z" fill="#333E47"/>
<path fill-rule="evenodd" clip-rule="evenodd" d="M672.08 96.2745C674.999 96.2745 675.794 98.5698 675.794 101.198C675.81 102.97 675.485 104.55 674.567 105.454C673.88 106.131 673.113 106.316 671.959 106.316C670.931 106.316 669.579 105.78 668.569 105.033V97.5185C669.621 96.7108 670.962 96.2745 672.08 96.2745ZM668.122 113.76H666.36C666.113 113.76 665.912 113.558 665.912 113.312C665.912 107.192 665.912 101.071 665.912 94.9508C665.912 94.705 666.113 94.5034 666.36 94.5034H667.709C667.992 94.5034 668.186 94.7087 668.222 94.9508L668.364 95.9128C669.627 94.7913 671.254 94.0723 672.803 94.0723C677.144 94.0723 678.571 97.6484 678.571 101.367C678.571 105.346 676.388 108.542 672.696 108.542C671.141 108.542 669.687 107.969 668.569 106.972V113.312C668.569 113.558 668.368 113.76 668.122 113.76Z" fill="#333E47"/>
</g>
<defs>
<clipPath id="clip0_722_713">
<rect width="99.3974" height="25" fill="white" transform="translate(16 18.064)"/>
</clipPath>
<clipPath id="clip1_722_713">
<rect width="105.738" height="30" fill="white" transform="translate(163.397 15.564)"/>
</clipPath>
<clipPath id="clip2_722_713">
<rect width="65.5022" height="30" fill="white" transform="translate(317.135 15.564)"/>
</clipPath>
<clipPath id="clip3_722_713">
<rect width="119.725" height="25" fill="white" transform="translate(430.637 18.064)"/>
</clipPath>
<clipPath id="clip4_722_713">
<rect width="93.9394" height="25" fill="white" transform="translate(16 94.064)"/>
</clipPath>
<clipPath id="clip5_722_713">
<rect width="40.625" height="25" fill="white" transform="translate(157.939 94.064)"/>
</clipPath>
<clipPath id="clip6_722_713">
<rect width="61.5984" height="20" fill="white" transform="translate(246.564 96.564)"/>
</clipPath>
<clipPath id="clip7_722_713">
<rect width="62.9541" height="25" fill="white" transform="translate(356.163 94.064)"/>
</clipPath>
<clipPath id="clip8_722_713">
<rect width="60.8944" height="25" fill="white" transform="translate(467.117 94.064)"/>
</clipPath>
<clipPath id="clip9_722_713">
<rect width="130.316" height="25" fill="white" transform="translate(576.011 94.064)"/>
</clipPath>
</defs>
</svg>
