<svg width="400" height="550" viewBox="0 0 400 550" fill="none" xmlns="http://www.w3.org/2000/svg">
<rect width="400" height="83" rx="10" fill="white"/>
<rect x="16" y="16.5" width="50" height="50" rx="8" fill="#5BB5A2"/>
<path d="M40.5612 35.9257C39.5392 35.9257 37.9572 34.7637 36.2912 34.8057C34.0932 34.8337 32.0772 36.0797 30.9432 38.0537C28.6612 42.0157 30.3552 47.8677 32.5812 51.0877C33.6732 52.6557 34.9612 54.4197 36.6692 54.3637C38.3072 54.2937 38.9232 53.2997 40.9112 53.2997C42.8852 53.2997 43.4452 54.3637 45.1812 54.3217C46.9452 54.2937 48.0652 52.7257 49.1432 51.1437C50.3892 49.3237 50.9072 47.5597 50.9352 47.4617C50.8932 47.4477 47.5052 46.1457 47.4632 42.2257C47.4352 38.9497 50.1372 37.3817 50.2632 37.3117C48.7232 35.0577 46.3572 34.8057 45.5312 34.7497C43.3752 34.5817 41.5692 35.9257 40.5612 35.9257ZM44.2012 32.6217C45.1112 31.5297 45.7132 30.0037 45.5452 28.4917C44.2432 28.5477 42.6752 29.3597 41.7372 30.4517C40.8972 31.4177 40.1692 32.9717 40.3652 34.4557C41.8072 34.5677 43.2912 33.7137 44.2012 32.6217Z" fill="white"/>
<path d="M82.468 35L87.112 22.4H89.2L93.808 35H91.792L90.712 31.922H85.564L84.484 35H82.468ZM86.104 30.41H90.172L88.138 24.668L86.104 30.41ZM94.9531 38.96V26.072H96.6631L96.8611 27.458C97.1491 27.038 97.5451 26.666 98.0491 26.342C98.5531 26.018 99.2011 25.856 99.9931 25.856C100.857 25.856 101.619 26.06 102.279 26.468C102.939 26.876 103.455 27.434 103.827 28.142C104.211 28.85 104.403 29.654 104.403 30.554C104.403 31.454 104.211 32.258 103.827 32.966C103.455 33.662 102.939 34.214 102.279 34.622C101.619 35.018 100.851 35.216 99.9751 35.216C99.2791 35.216 98.6611 35.078 98.1211 34.802C97.5931 34.526 97.1731 34.136 96.8611 33.632V38.96H94.9531ZM99.6511 33.56C100.467 33.56 101.139 33.284 101.667 32.732C102.195 32.168 102.459 31.436 102.459 30.536C102.459 29.948 102.339 29.426 102.099 28.97C101.859 28.514 101.529 28.16 101.109 27.908C100.689 27.644 100.203 27.512 99.6511 27.512C98.8351 27.512 98.1631 27.794 97.6351 28.358C97.1191 28.922 96.8611 29.648 96.8611 30.536C96.8611 31.436 97.1191 32.168 97.6351 32.732C98.1631 33.284 98.8351 33.56 99.6511 33.56ZM105.927 38.96V26.072H107.637L107.835 27.458C108.123 27.038 108.519 26.666 109.023 26.342C109.527 26.018 110.175 25.856 110.967 25.856C111.831 25.856 112.593 26.06 113.253 26.468C113.913 26.876 114.429 27.434 114.801 28.142C115.185 28.85 115.377 29.654 115.377 30.554C115.377 31.454 115.185 32.258 114.801 32.966C114.429 33.662 113.913 34.214 113.253 34.622C112.593 35.018 111.825 35.216 110.949 35.216C110.253 35.216 109.635 35.078 109.095 34.802C108.567 34.526 108.147 34.136 107.835 33.632V38.96H105.927ZM110.625 33.56C111.441 33.56 112.113 33.284 112.641 32.732C113.169 32.168 113.433 31.436 113.433 30.536C113.433 29.948 113.313 29.426 113.073 28.97C112.833 28.514 112.503 28.16 112.083 27.908C111.663 27.644 111.177 27.512 110.625 27.512C109.809 27.512 109.137 27.794 108.609 28.358C108.093 28.922 107.835 29.648 107.835 30.536C107.835 31.436 108.093 32.168 108.609 32.732C109.137 33.284 109.809 33.56 110.625 33.56ZM116.9 35V22.04H118.808V35H116.9ZM124.861 35.216C123.985 35.216 123.205 35.024 122.521 34.64C121.849 34.244 121.321 33.698 120.937 33.002C120.553 32.306 120.361 31.496 120.361 30.572C120.361 29.636 120.547 28.814 120.919 28.106C121.303 27.398 121.831 26.846 122.503 26.45C123.187 26.054 123.979 25.856 124.879 25.856C125.755 25.856 126.517 26.054 127.165 26.45C127.813 26.834 128.317 27.35 128.677 27.998C129.037 28.646 129.217 29.36 129.217 30.14C129.217 30.26 129.211 30.392 129.199 30.536C129.199 30.668 129.193 30.818 129.181 30.986H122.233C122.293 31.85 122.575 32.51 123.079 32.966C123.595 33.41 124.189 33.632 124.861 33.632C125.401 33.632 125.851 33.512 126.211 33.272C126.583 33.02 126.859 32.684 127.039 32.264H128.947C128.707 33.104 128.227 33.806 127.507 34.37C126.799 34.934 125.917 35.216 124.861 35.216ZM124.861 27.422C124.225 27.422 123.661 27.614 123.169 27.998C122.677 28.37 122.377 28.934 122.269 29.69H127.309C127.273 28.994 127.027 28.442 126.571 28.034C126.115 27.626 125.545 27.422 124.861 27.422Z" fill="#1A191E"/>
<path d="M83.2784 48.3636H85.4091L89.1136 57.4091H89.25L92.9545 48.3636H95.0852V60H93.4148V51.5795H93.3068L89.875 59.983H88.4886L85.0568 51.5739H84.9489V60H83.2784V48.3636ZM100.041 60.1932C99.4882 60.1932 98.9882 60.0909 98.5412 59.8864C98.0942 59.678 97.7401 59.3769 97.4787 58.983C97.2211 58.589 97.0923 58.1061 97.0923 57.5341C97.0923 57.0417 97.187 56.6364 97.3764 56.3182C97.5658 56 97.8215 55.7481 98.1435 55.5625C98.4654 55.3769 98.8253 55.2367 99.223 55.142C99.6207 55.0473 100.026 54.9754 100.439 54.9261C100.962 54.8655 101.386 54.8163 101.712 54.7784C102.037 54.7367 102.274 54.6705 102.422 54.5795C102.57 54.4886 102.643 54.3409 102.643 54.1364V54.0966C102.643 53.6004 102.503 53.2159 102.223 52.9432C101.946 52.6705 101.534 52.5341 100.984 52.5341C100.412 52.5341 99.9616 52.661 99.6321 52.9148C99.3063 53.1648 99.081 53.4432 98.956 53.75L97.3594 53.3864C97.5488 52.8561 97.8253 52.428 98.1889 52.1023C98.5563 51.7727 98.9787 51.5341 99.456 51.3864C99.9332 51.2348 100.435 51.1591 100.962 51.1591C101.31 51.1591 101.679 51.2008 102.07 51.2841C102.464 51.3636 102.831 51.5114 103.172 51.7273C103.517 51.9432 103.799 52.2519 104.018 52.6534C104.238 53.0511 104.348 53.5682 104.348 54.2045V60H102.689V58.8068H102.621C102.511 59.0265 102.346 59.2424 102.126 59.4545C101.907 59.6667 101.625 59.8428 101.28 59.983C100.935 60.1231 100.522 60.1932 100.041 60.1932ZM100.411 58.8295C100.88 58.8295 101.282 58.7367 101.615 58.5511C101.952 58.3655 102.208 58.1231 102.382 57.8239C102.56 57.5208 102.649 57.197 102.649 56.8523V55.7273C102.589 55.7879 102.471 55.8447 102.297 55.8977C102.126 55.947 101.931 55.9905 101.712 56.0284C101.492 56.0625 101.278 56.0947 101.07 56.125C100.861 56.1515 100.687 56.1742 100.547 56.1932C100.217 56.2348 99.9162 56.3049 99.6435 56.4034C99.3745 56.5019 99.1586 56.6439 98.9957 56.8295C98.8366 57.0114 98.7571 57.2538 98.7571 57.5568C98.7571 57.9773 98.9124 58.2955 99.223 58.5114C99.5336 58.7235 99.9295 58.8295 100.411 58.8295ZM110.287 60.1761C109.442 60.1761 108.715 59.9848 108.105 59.6023C107.499 59.2159 107.033 58.6837 106.707 58.0057C106.382 57.3277 106.219 56.5511 106.219 55.6761C106.219 54.7898 106.385 54.0076 106.719 53.3295C107.052 52.6477 107.522 52.1155 108.128 51.733C108.734 51.3504 109.448 51.1591 110.27 51.1591C110.933 51.1591 111.524 51.2822 112.043 51.5284C112.562 51.7708 112.98 52.1117 113.298 52.5511C113.62 52.9905 113.812 53.5038 113.872 54.0909H112.219C112.128 53.6818 111.92 53.3295 111.594 53.0341C111.272 52.7386 110.84 52.5909 110.298 52.5909C109.825 52.5909 109.41 52.7159 109.054 52.9659C108.702 53.2121 108.427 53.5644 108.23 54.0227C108.033 54.4773 107.935 55.0152 107.935 55.6364C107.935 56.2727 108.031 56.822 108.224 57.2841C108.418 57.7462 108.69 58.1042 109.043 58.358C109.399 58.6117 109.817 58.7386 110.298 58.7386C110.62 58.7386 110.912 58.6799 111.173 58.5625C111.438 58.4413 111.66 58.2689 111.838 58.0455C112.02 57.822 112.147 57.553 112.219 57.2386H113.872C113.812 57.803 113.628 58.3068 113.321 58.75C113.014 59.1932 112.603 59.5417 112.088 59.7955C111.577 60.0492 110.976 60.1761 110.287 60.1761ZM115.825 60V48.3636H117.524V52.6875H117.626C117.725 52.5057 117.867 52.2955 118.053 52.0568C118.238 51.8182 118.496 51.6098 118.825 51.4318C119.155 51.25 119.59 51.1591 120.132 51.1591C120.837 51.1591 121.465 51.3371 122.018 51.6932C122.571 52.0492 123.005 52.5625 123.32 53.233C123.638 53.9034 123.797 54.7102 123.797 55.6534C123.797 56.5966 123.64 57.4053 123.325 58.0795C123.011 58.75 122.579 59.267 122.03 59.6307C121.481 59.9905 120.854 60.1705 120.149 60.1705C119.619 60.1705 119.185 60.0814 118.848 59.9034C118.515 59.7254 118.253 59.517 118.064 59.2784C117.875 59.0398 117.729 58.8277 117.626 58.642H117.484V60H115.825ZM117.49 55.6364C117.49 56.25 117.579 56.7879 117.757 57.25C117.935 57.7121 118.193 58.0739 118.53 58.3352C118.867 58.5928 119.28 58.7216 119.768 58.7216C120.276 58.7216 120.7 58.5871 121.041 58.3182C121.382 58.0455 121.64 57.6761 121.814 57.2102C121.992 56.7443 122.081 56.2197 122.081 55.6364C122.081 55.0606 121.994 54.5436 121.82 54.0852C121.649 53.6269 121.392 53.2652 121.047 53C120.706 52.7348 120.28 52.6023 119.768 52.6023C119.276 52.6023 118.859 52.7292 118.518 52.983C118.181 53.2367 117.926 53.5909 117.751 54.0455C117.577 54.5 117.49 55.0303 117.49 55.6364ZM129.381 60.1761C128.563 60.1761 127.848 59.9886 127.239 59.6136C126.629 59.2386 126.155 58.714 125.818 58.0398C125.481 57.3655 125.312 56.5777 125.312 55.6761C125.312 54.7708 125.481 53.9792 125.818 53.3011C126.155 52.6231 126.629 52.0966 127.239 51.7216C127.848 51.3466 128.563 51.1591 129.381 51.1591C130.199 51.1591 130.913 51.3466 131.523 51.7216C132.133 52.0966 132.606 52.6231 132.943 53.3011C133.28 53.9792 133.449 54.7708 133.449 55.6761C133.449 56.5777 133.28 57.3655 132.943 58.0398C132.606 58.714 132.133 59.2386 131.523 59.6136C130.913 59.9886 130.199 60.1761 129.381 60.1761ZM129.386 58.75C129.917 58.75 130.356 58.6098 130.705 58.3295C131.053 58.0492 131.311 57.6761 131.477 57.2102C131.648 56.7443 131.733 56.2311 131.733 55.6705C131.733 55.1136 131.648 54.6023 131.477 54.1364C131.311 53.6667 131.053 53.2898 130.705 53.0057C130.356 52.7216 129.917 52.5795 129.386 52.5795C128.852 52.5795 128.409 52.7216 128.057 53.0057C127.708 53.2898 127.449 53.6667 127.278 54.1364C127.112 54.6023 127.028 55.1136 127.028 55.6705C127.028 56.2311 127.112 56.7443 127.278 57.2102C127.449 57.6761 127.708 58.0492 128.057 58.3295C128.409 58.6098 128.852 58.75 129.386 58.75ZM139.021 60.1761C138.203 60.1761 137.489 59.9886 136.879 59.6136C136.269 59.2386 135.796 58.714 135.459 58.0398C135.122 57.3655 134.953 56.5777 134.953 55.6761C134.953 54.7708 135.122 53.9792 135.459 53.3011C135.796 52.6231 136.269 52.0966 136.879 51.7216C137.489 51.3466 138.203 51.1591 139.021 51.1591C139.839 51.1591 140.554 51.3466 141.163 51.7216C141.773 52.0966 142.247 52.6231 142.584 53.3011C142.921 53.9792 143.089 54.7708 143.089 55.6761C143.089 56.5777 142.921 57.3655 142.584 58.0398C142.247 58.714 141.773 59.2386 141.163 59.6136C140.554 59.9886 139.839 60.1761 139.021 60.1761ZM139.027 58.75C139.557 58.75 139.997 58.6098 140.345 58.3295C140.694 58.0492 140.951 57.6761 141.118 57.2102C141.288 56.7443 141.374 56.2311 141.374 55.6705C141.374 55.1136 141.288 54.6023 141.118 54.1364C140.951 53.6667 140.694 53.2898 140.345 53.0057C139.997 52.7216 139.557 52.5795 139.027 52.5795C138.493 52.5795 138.05 52.7216 137.697 53.0057C137.349 53.2898 137.089 53.6667 136.919 54.1364C136.752 54.6023 136.669 55.1136 136.669 55.6705C136.669 56.2311 136.752 56.7443 136.919 57.2102C137.089 57.6761 137.349 58.0492 137.697 58.3295C138.05 58.6098 138.493 58.75 139.027 58.75ZM146.548 57.0398L146.537 54.9659H146.832L150.31 51.2727H152.344L148.378 55.4773H148.111L146.548 57.0398ZM144.986 60V48.3636H146.685V60H144.986ZM150.497 60L147.372 55.8523L148.543 54.6648L152.582 60H150.497Z" fill="#1A191E" fill-opacity="0.5"/>
<path d="M321.026 43.572V41.97H328.352V43.572H321.026ZM334.32 48.216C333.492 48.216 332.784 48.054 332.196 47.73C331.608 47.406 331.146 46.974 330.81 46.434C330.486 45.894 330.288 45.306 330.216 44.67H331.998C332.106 45.294 332.364 45.774 332.772 46.11C333.18 46.446 333.702 46.614 334.338 46.614C335.214 46.614 335.934 46.206 336.498 45.39C337.074 44.562 337.38 43.296 337.416 41.592C337.128 42.12 336.678 42.57 336.066 42.942C335.466 43.314 334.77 43.5 333.978 43.5C333.27 43.5 332.604 43.332 331.98 42.996C331.356 42.66 330.852 42.192 330.468 41.592C330.084 40.98 329.892 40.26 329.892 39.432C329.892 38.7 330.072 38.01 330.432 37.362C330.792 36.714 331.296 36.192 331.944 35.796C332.604 35.388 333.384 35.184 334.284 35.184C335.208 35.184 335.988 35.358 336.624 35.706C337.26 36.054 337.77 36.516 338.154 37.092C338.538 37.668 338.814 38.316 338.982 39.036C339.162 39.756 339.252 40.494 339.252 41.25C339.252 42.642 339.054 43.86 338.658 44.904C338.274 45.948 337.716 46.764 336.984 47.352C336.252 47.928 335.364 48.216 334.32 48.216ZM334.41 41.862C334.914 41.862 335.364 41.748 335.76 41.52C336.156 41.292 336.468 40.992 336.696 40.62C336.936 40.236 337.056 39.816 337.056 39.36C337.056 38.868 336.936 38.436 336.696 38.064C336.468 37.68 336.15 37.38 335.742 37.164C335.346 36.948 334.896 36.84 334.392 36.84C333.888 36.84 333.438 36.948 333.042 37.164C332.646 37.38 332.328 37.68 332.088 38.064C331.86 38.436 331.746 38.862 331.746 39.342C331.746 40.11 331.998 40.722 332.502 41.178C333.006 41.634 333.642 41.862 334.41 41.862ZM345.153 48.216C344.325 48.216 343.617 48.054 343.029 47.73C342.441 47.406 341.979 46.974 341.643 46.434C341.319 45.894 341.121 45.306 341.049 44.67H342.831C342.939 45.294 343.197 45.774 343.605 46.11C344.013 46.446 344.535 46.614 345.171 46.614C346.047 46.614 346.767 46.206 347.331 45.39C347.907 44.562 348.213 43.296 348.249 41.592C347.961 42.12 347.511 42.57 346.899 42.942C346.299 43.314 345.603 43.5 344.811 43.5C344.103 43.5 343.437 43.332 342.813 42.996C342.189 42.66 341.685 42.192 341.301 41.592C340.917 40.98 340.725 40.26 340.725 39.432C340.725 38.7 340.905 38.01 341.265 37.362C341.625 36.714 342.129 36.192 342.777 35.796C343.437 35.388 344.217 35.184 345.117 35.184C346.041 35.184 346.821 35.358 347.457 35.706C348.093 36.054 348.603 36.516 348.987 37.092C349.371 37.668 349.647 38.316 349.815 39.036C349.995 39.756 350.085 40.494 350.085 41.25C350.085 42.642 349.887 43.86 349.491 44.904C349.107 45.948 348.549 46.764 347.817 47.352C347.085 47.928 346.197 48.216 345.153 48.216ZM345.243 41.862C345.747 41.862 346.197 41.748 346.593 41.52C346.989 41.292 347.301 40.992 347.529 40.62C347.769 40.236 347.889 39.816 347.889 39.36C347.889 38.868 347.769 38.436 347.529 38.064C347.301 37.68 346.983 37.38 346.575 37.164C346.179 36.948 345.729 36.84 345.225 36.84C344.721 36.84 344.271 36.948 343.875 37.164C343.479 37.38 343.161 37.68 342.921 38.064C342.693 38.436 342.579 38.862 342.579 39.342C342.579 40.11 342.831 40.722 343.335 41.178C343.839 41.634 344.475 41.862 345.243 41.862ZM355.986 48.216C355.158 48.216 354.45 48.054 353.862 47.73C353.274 47.406 352.812 46.974 352.476 46.434C352.152 45.894 351.954 45.306 351.882 44.67H353.664C353.772 45.294 354.03 45.774 354.438 46.11C354.846 46.446 355.368 46.614 356.004 46.614C356.88 46.614 357.6 46.206 358.164 45.39C358.74 44.562 359.046 43.296 359.082 41.592C358.794 42.12 358.344 42.57 357.732 42.942C357.132 43.314 356.436 43.5 355.644 43.5C354.936 43.5 354.27 43.332 353.646 42.996C353.022 42.66 352.518 42.192 352.134 41.592C351.75 40.98 351.558 40.26 351.558 39.432C351.558 38.7 351.738 38.01 352.098 37.362C352.458 36.714 352.962 36.192 353.61 35.796C354.27 35.388 355.05 35.184 355.95 35.184C356.874 35.184 357.654 35.358 358.29 35.706C358.926 36.054 359.436 36.516 359.82 37.092C360.204 37.668 360.48 38.316 360.648 39.036C360.828 39.756 360.918 40.494 360.918 41.25C360.918 42.642 360.72 43.86 360.324 44.904C359.94 45.948 359.382 46.764 358.65 47.352C357.918 47.928 357.03 48.216 355.986 48.216ZM356.076 41.862C356.58 41.862 357.03 41.748 357.426 41.52C357.822 41.292 358.134 40.992 358.362 40.62C358.602 40.236 358.722 39.816 358.722 39.36C358.722 38.868 358.602 38.436 358.362 38.064C358.134 37.68 357.816 37.38 357.408 37.164C357.012 36.948 356.562 36.84 356.058 36.84C355.554 36.84 355.104 36.948 354.708 37.164C354.312 37.38 353.994 37.68 353.754 38.064C353.526 38.436 353.412 38.862 353.412 39.342C353.412 40.11 353.664 40.722 354.168 41.178C354.672 41.634 355.308 41.862 356.076 41.862ZM361.707 43.68V42.438H363.129C363.105 42.198 363.093 41.958 363.093 41.718C363.093 41.454 363.105 41.202 363.129 40.962H361.707V39.702H363.327C363.663 38.334 364.335 37.242 365.343 36.426C366.363 35.598 367.635 35.184 369.159 35.184C370.635 35.184 371.841 35.544 372.777 36.264C373.713 36.984 374.307 37.992 374.559 39.288H372.453C372.273 38.556 371.907 37.974 371.355 37.542C370.815 37.11 370.077 36.894 369.141 36.894C368.193 36.894 367.389 37.14 366.729 37.632C366.081 38.124 365.613 38.814 365.325 39.702H369.483V40.962H365.091C365.067 41.202 365.055 41.454 365.055 41.718C365.055 41.97 365.067 42.21 365.091 42.438H369.483V43.68H365.325C365.601 44.58 366.069 45.276 366.729 45.768C367.389 46.26 368.193 46.506 369.141 46.506C370.077 46.506 370.815 46.302 371.355 45.894C371.907 45.486 372.273 44.928 372.453 44.22H374.559C374.307 45.468 373.713 46.446 372.777 47.154C371.841 47.862 370.635 48.216 369.159 48.216C367.623 48.216 366.345 47.808 365.325 46.992C364.317 46.164 363.651 45.06 363.327 43.68H361.707Z" fill="#1A191E"/>
<rect y="99" width="400" height="83" rx="10" fill="white"/>
<rect x="16" y="115.5" width="50" height="50" rx="8" fill="#5BB5A2"/>
<path d="M40.5612 134.926C39.5392 134.926 37.9572 133.764 36.2912 133.806C34.0932 133.834 32.0772 135.08 30.9432 137.054C28.6612 141.016 30.3552 146.868 32.5812 150.088C33.6732 151.656 34.9612 153.42 36.6692 153.364C38.3072 153.294 38.9232 152.3 40.9112 152.3C42.8852 152.3 43.4452 153.364 45.1812 153.322C46.9452 153.294 48.0652 151.726 49.1432 150.144C50.3892 148.324 50.9072 146.56 50.9352 146.462C50.8932 146.448 47.5052 145.146 47.4632 141.226C47.4352 137.95 50.1372 136.382 50.2632 136.312C48.7232 134.058 46.3572 133.806 45.5312 133.75C43.3752 133.582 41.5692 134.926 40.5612 134.926ZM44.2012 131.622C45.1112 130.53 45.7132 129.004 45.5452 127.492C44.2432 127.548 42.6752 128.36 41.7372 129.452C40.8972 130.418 40.1692 131.972 40.3652 133.456C41.8072 133.568 43.2912 132.714 44.2012 131.622Z" fill="white"/>
<path d="M82.468 134L87.112 121.4H89.2L93.808 134H91.792L90.712 130.922H85.564L84.484 134H82.468ZM86.104 129.41H90.172L88.138 123.668L86.104 129.41ZM94.9531 134V125.072H96.6451L96.8071 126.332C97.0951 125.876 97.4731 125.516 97.9411 125.252C98.4211 124.988 98.9731 124.856 99.5971 124.856C101.013 124.856 101.997 125.414 102.549 126.53C102.873 126.014 103.305 125.606 103.845 125.306C104.397 125.006 104.991 124.856 105.627 124.856C106.743 124.856 107.619 125.192 108.255 125.864C108.891 126.536 109.209 127.538 109.209 128.87V134H107.301V129.068C107.301 127.34 106.641 126.476 105.321 126.476C104.649 126.476 104.097 126.728 103.665 127.232C103.245 127.736 103.035 128.456 103.035 129.392V134H101.127V129.068C101.127 127.34 100.461 126.476 99.1291 126.476C98.4691 126.476 97.9231 126.728 97.4911 127.232C97.0711 127.736 96.8611 128.456 96.8611 129.392V134H94.9531ZM113.925 134.216C113.169 134.216 112.545 134.09 112.053 133.838C111.561 133.586 111.195 133.256 110.955 132.848C110.715 132.428 110.595 131.972 110.595 131.48C110.595 130.616 110.931 129.932 111.603 129.428C112.275 128.924 113.235 128.672 114.483 128.672H116.823V128.51C116.823 127.814 116.631 127.292 116.247 126.944C115.875 126.596 115.389 126.422 114.789 126.422C114.261 126.422 113.799 126.554 113.403 126.818C113.019 127.07 112.785 127.448 112.701 127.952H110.793C110.853 127.304 111.069 126.752 111.441 126.296C111.825 125.828 112.305 125.474 112.881 125.234C113.469 124.982 114.111 124.856 114.807 124.856C116.055 124.856 117.021 125.186 117.705 125.846C118.389 126.494 118.731 127.382 118.731 128.51V134H117.075L116.913 132.47C116.661 132.962 116.295 133.376 115.815 133.712C115.335 134.048 114.705 134.216 113.925 134.216ZM114.303 132.668C114.819 132.668 115.251 132.548 115.599 132.308C115.959 132.056 116.235 131.726 116.427 131.318C116.631 130.91 116.757 130.46 116.805 129.968H114.681C113.925 129.968 113.385 130.1 113.061 130.364C112.749 130.628 112.593 130.958 112.593 131.354C112.593 131.762 112.743 132.086 113.043 132.326C113.355 132.554 113.775 132.668 114.303 132.668ZM119.822 134V132.452L124.592 126.656H119.894V125.072H126.752V126.62L121.946 132.416H126.842V134H119.822ZM132.437 134.216C131.585 134.216 130.817 134.024 130.133 133.64C129.461 133.244 128.927 132.698 128.531 132.002C128.135 131.294 127.937 130.472 127.937 129.536C127.937 128.6 128.135 127.784 128.531 127.088C128.939 126.38 129.485 125.834 130.169 125.45C130.853 125.054 131.615 124.856 132.455 124.856C133.307 124.856 134.069 125.054 134.741 125.45C135.425 125.834 135.965 126.38 136.361 127.088C136.769 127.784 136.973 128.6 136.973 129.536C136.973 130.472 136.769 131.294 136.361 132.002C135.965 132.698 135.425 133.244 134.741 133.64C134.057 134.024 133.289 134.216 132.437 134.216ZM132.437 132.578C132.893 132.578 133.313 132.464 133.697 132.236C134.093 132.008 134.411 131.672 134.651 131.228C134.891 130.772 135.011 130.208 135.011 129.536C135.011 128.864 134.891 128.306 134.651 127.862C134.423 127.406 134.111 127.064 133.715 126.836C133.331 126.608 132.911 126.494 132.455 126.494C131.999 126.494 131.573 126.608 131.177 126.836C130.793 127.064 130.481 127.406 130.241 127.862C130.001 128.306 129.881 128.864 129.881 129.536C129.881 130.208 130.001 130.772 130.241 131.228C130.481 131.672 130.793 132.008 131.177 132.236C131.561 132.464 131.981 132.578 132.437 132.578ZM138.496 134V125.072H140.188L140.332 126.638C140.608 126.086 141.01 125.654 141.538 125.342C142.078 125.018 142.696 124.856 143.392 124.856C144.472 124.856 145.318 125.192 145.93 125.864C146.554 126.536 146.866 127.538 146.866 128.87V134H144.976V129.068C144.976 127.34 144.268 126.476 142.852 126.476C142.144 126.476 141.556 126.728 141.088 127.232C140.632 127.736 140.404 128.456 140.404 129.392V134H138.496Z" fill="#1A191E"/>
<path d="M83.2784 159V147.364H90.5739V148.875H85.0341V152.42H90.1932V153.926H85.0341V157.489H90.642V159H83.2784ZM94.4815 147.364V159H92.7827V147.364H94.4815ZM100.528 159.176C99.6686 159.176 98.928 158.992 98.3068 158.625C97.6894 158.254 97.2121 157.733 96.875 157.062C96.5417 156.388 96.375 155.598 96.375 154.693C96.375 153.799 96.5417 153.011 96.875 152.33C97.2121 151.648 97.6818 151.116 98.2841 150.733C98.8902 150.35 99.5985 150.159 100.409 150.159C100.902 150.159 101.379 150.241 101.841 150.403C102.303 150.566 102.718 150.822 103.085 151.17C103.453 151.519 103.742 151.972 103.955 152.528C104.167 153.081 104.273 153.754 104.273 154.545V155.148H97.3352V153.875H102.608C102.608 153.428 102.517 153.032 102.335 152.688C102.153 152.339 101.898 152.064 101.568 151.864C101.242 151.663 100.86 151.562 100.42 151.562C99.9432 151.562 99.5265 151.68 99.1705 151.915C98.8182 152.146 98.5455 152.449 98.3523 152.824C98.1629 153.195 98.0682 153.598 98.0682 154.034V155.028C98.0682 155.612 98.1705 156.108 98.375 156.517C98.5833 156.926 98.8731 157.239 99.2443 157.455C99.6155 157.667 100.049 157.773 100.545 157.773C100.867 157.773 101.161 157.727 101.426 157.636C101.691 157.542 101.92 157.402 102.114 157.216C102.307 157.03 102.455 156.801 102.557 156.528L104.165 156.818C104.036 157.292 103.805 157.706 103.472 158.062C103.142 158.415 102.727 158.689 102.227 158.886C101.731 159.08 101.165 159.176 100.528 159.176ZM109.834 159.176C108.989 159.176 108.262 158.985 107.652 158.602C107.046 158.216 106.58 157.684 106.254 157.006C105.929 156.328 105.766 155.551 105.766 154.676C105.766 153.79 105.932 153.008 106.266 152.33C106.599 151.648 107.069 151.116 107.675 150.733C108.281 150.35 108.995 150.159 109.817 150.159C110.48 150.159 111.071 150.282 111.589 150.528C112.108 150.771 112.527 151.112 112.845 151.551C113.167 151.991 113.358 152.504 113.419 153.091H111.766C111.675 152.682 111.466 152.33 111.141 152.034C110.819 151.739 110.387 151.591 109.845 151.591C109.372 151.591 108.957 151.716 108.601 151.966C108.249 152.212 107.974 152.564 107.777 153.023C107.58 153.477 107.482 154.015 107.482 154.636C107.482 155.273 107.578 155.822 107.771 156.284C107.964 156.746 108.237 157.104 108.589 157.358C108.946 157.612 109.364 157.739 109.845 157.739C110.167 157.739 110.459 157.68 110.72 157.562C110.985 157.441 111.207 157.269 111.385 157.045C111.567 156.822 111.694 156.553 111.766 156.239H113.419C113.358 156.803 113.175 157.307 112.868 157.75C112.561 158.193 112.15 158.542 111.635 158.795C111.124 159.049 110.523 159.176 109.834 159.176ZM119.31 150.273V151.636H114.543V150.273H119.31ZM115.821 148.182H117.52V156.438C117.52 156.767 117.569 157.015 117.668 157.182C117.766 157.345 117.893 157.456 118.048 157.517C118.207 157.574 118.38 157.602 118.565 157.602C118.702 157.602 118.821 157.593 118.923 157.574C119.026 157.555 119.105 157.54 119.162 157.528L119.469 158.932C119.37 158.97 119.23 159.008 119.048 159.045C118.866 159.087 118.639 159.11 118.366 159.114C117.92 159.121 117.503 159.042 117.116 158.875C116.73 158.708 116.418 158.451 116.179 158.102C115.94 157.754 115.821 157.316 115.821 156.79V148.182ZM121.189 159V150.273H122.831V151.659H122.922C123.081 151.189 123.361 150.82 123.763 150.551C124.168 150.278 124.626 150.142 125.138 150.142C125.244 150.142 125.369 150.146 125.513 150.153C125.661 150.161 125.776 150.17 125.859 150.182V151.807C125.791 151.788 125.67 151.767 125.496 151.744C125.321 151.718 125.147 151.705 124.973 151.705C124.571 151.705 124.214 151.79 123.899 151.96C123.589 152.127 123.342 152.36 123.161 152.659C122.979 152.955 122.888 153.292 122.888 153.67V159H121.189ZM130.693 159.176C129.875 159.176 129.161 158.989 128.551 158.614C127.941 158.239 127.468 157.714 127.131 157.04C126.794 156.366 126.625 155.578 126.625 154.676C126.625 153.771 126.794 152.979 127.131 152.301C127.468 151.623 127.941 151.097 128.551 150.722C129.161 150.347 129.875 150.159 130.693 150.159C131.511 150.159 132.225 150.347 132.835 150.722C133.445 151.097 133.919 151.623 134.256 152.301C134.593 152.979 134.761 153.771 134.761 154.676C134.761 155.578 134.593 156.366 134.256 157.04C133.919 157.714 133.445 158.239 132.835 158.614C132.225 158.989 131.511 159.176 130.693 159.176ZM130.699 157.75C131.229 157.75 131.669 157.61 132.017 157.33C132.366 157.049 132.623 156.676 132.79 156.21C132.96 155.744 133.045 155.231 133.045 154.67C133.045 154.114 132.96 153.602 132.79 153.136C132.623 152.667 132.366 152.29 132.017 152.006C131.669 151.722 131.229 151.58 130.699 151.58C130.165 151.58 129.722 151.722 129.369 152.006C129.021 152.29 128.761 152.667 128.591 153.136C128.424 153.602 128.341 154.114 128.341 154.67C128.341 155.231 128.424 155.744 128.591 156.21C128.761 156.676 129.021 157.049 129.369 157.33C129.722 157.61 130.165 157.75 130.699 157.75ZM138.357 153.818V159H136.658V150.273H138.288V151.693H138.396C138.597 151.231 138.911 150.86 139.339 150.58C139.771 150.299 140.315 150.159 140.97 150.159C141.565 150.159 142.086 150.284 142.533 150.534C142.98 150.78 143.326 151.148 143.572 151.636C143.819 152.125 143.942 152.729 143.942 153.449V159H142.243V153.653C142.243 153.021 142.078 152.527 141.749 152.17C141.419 151.811 140.966 151.631 140.391 151.631C139.997 151.631 139.646 151.716 139.339 151.886C139.036 152.057 138.796 152.307 138.618 152.636C138.444 152.962 138.357 153.356 138.357 153.818ZM146.22 159V150.273H147.919V159H146.22ZM147.078 148.926C146.783 148.926 146.529 148.828 146.317 148.631C146.108 148.43 146.004 148.191 146.004 147.915C146.004 147.634 146.108 147.396 146.317 147.199C146.529 146.998 146.783 146.898 147.078 146.898C147.374 146.898 147.625 146.998 147.834 147.199C148.046 147.396 148.152 147.634 148.152 147.915C148.152 148.191 148.046 148.43 147.834 148.631C147.625 148.828 147.374 148.926 147.078 148.926ZM153.881 159.176C153.036 159.176 152.309 158.985 151.699 158.602C151.093 158.216 150.627 157.684 150.301 157.006C149.975 156.328 149.812 155.551 149.812 154.676C149.812 153.79 149.979 153.008 150.312 152.33C150.646 151.648 151.116 151.116 151.722 150.733C152.328 150.35 153.042 150.159 153.864 150.159C154.527 150.159 155.117 150.282 155.636 150.528C156.155 150.771 156.574 151.112 156.892 151.551C157.214 151.991 157.405 152.504 157.466 153.091H155.812C155.722 152.682 155.513 152.33 155.188 152.034C154.866 151.739 154.434 151.591 153.892 151.591C153.419 151.591 153.004 151.716 152.648 151.966C152.295 152.212 152.021 152.564 151.824 153.023C151.627 153.477 151.528 154.015 151.528 154.636C151.528 155.273 151.625 155.822 151.818 156.284C152.011 156.746 152.284 157.104 152.636 157.358C152.992 157.612 153.411 157.739 153.892 157.739C154.214 157.739 154.506 157.68 154.767 157.562C155.032 157.441 155.254 157.269 155.432 157.045C155.614 156.822 155.741 156.553 155.812 156.239H157.466C157.405 156.803 157.222 157.307 156.915 157.75C156.608 158.193 156.197 158.542 155.682 158.795C155.17 159.049 154.57 159.176 153.881 159.176ZM165.822 152.403L164.283 152.676C164.218 152.479 164.116 152.292 163.976 152.114C163.839 151.936 163.654 151.79 163.419 151.676C163.184 151.562 162.891 151.506 162.538 151.506C162.057 151.506 161.656 151.614 161.334 151.83C161.012 152.042 160.851 152.316 160.851 152.653C160.851 152.945 160.959 153.18 161.175 153.358C161.391 153.536 161.739 153.682 162.22 153.795L163.607 154.114C164.41 154.299 165.008 154.585 165.402 154.972C165.796 155.358 165.993 155.86 165.993 156.477C165.993 157 165.841 157.466 165.538 157.875C165.239 158.28 164.821 158.598 164.283 158.83C163.749 159.061 163.129 159.176 162.425 159.176C161.447 159.176 160.65 158.968 160.033 158.551C159.415 158.131 159.036 157.534 158.896 156.761L160.538 156.511C160.641 156.939 160.851 157.263 161.169 157.483C161.487 157.699 161.902 157.807 162.413 157.807C162.97 157.807 163.415 157.691 163.749 157.46C164.082 157.225 164.249 156.939 164.249 156.602C164.249 156.33 164.146 156.1 163.942 155.915C163.741 155.729 163.432 155.589 163.016 155.494L161.538 155.17C160.724 154.985 160.122 154.689 159.732 154.284C159.345 153.879 159.152 153.366 159.152 152.744C159.152 152.229 159.296 151.778 159.584 151.392C159.872 151.006 160.269 150.705 160.777 150.489C161.285 150.269 161.866 150.159 162.521 150.159C163.464 150.159 164.207 150.364 164.749 150.773C165.29 151.178 165.648 151.722 165.822 152.403Z" fill="#1A191E" fill-opacity="0.5"/>
<path d="M332.026 142.572V140.97H339.352V142.572H332.026ZM346.832 147V144.48H340.514V142.968L346.526 134.4H348.722V142.824H350.486V144.48H348.722V147H346.832ZM342.584 142.824H346.94V136.506L342.584 142.824ZM355.994 147.216C355.166 147.216 354.458 147.054 353.87 146.73C353.282 146.406 352.82 145.974 352.484 145.434C352.16 144.894 351.962 144.306 351.89 143.67H353.672C353.78 144.294 354.038 144.774 354.446 145.11C354.854 145.446 355.376 145.614 356.012 145.614C356.888 145.614 357.608 145.206 358.172 144.39C358.748 143.562 359.054 142.296 359.09 140.592C358.802 141.12 358.352 141.57 357.74 141.942C357.14 142.314 356.444 142.5 355.652 142.5C354.944 142.5 354.278 142.332 353.654 141.996C353.03 141.66 352.526 141.192 352.142 140.592C351.758 139.98 351.566 139.26 351.566 138.432C351.566 137.7 351.746 137.01 352.106 136.362C352.466 135.714 352.97 135.192 353.618 134.796C354.278 134.388 355.058 134.184 355.958 134.184C356.882 134.184 357.662 134.358 358.298 134.706C358.934 135.054 359.444 135.516 359.828 136.092C360.212 136.668 360.488 137.316 360.656 138.036C360.836 138.756 360.926 139.494 360.926 140.25C360.926 141.642 360.728 142.86 360.332 143.904C359.948 144.948 359.39 145.764 358.658 146.352C357.926 146.928 357.038 147.216 355.994 147.216ZM356.084 140.862C356.588 140.862 357.038 140.748 357.434 140.52C357.83 140.292 358.142 139.992 358.37 139.62C358.61 139.236 358.73 138.816 358.73 138.36C358.73 137.868 358.61 137.436 358.37 137.064C358.142 136.68 357.824 136.38 357.416 136.164C357.02 135.948 356.57 135.84 356.066 135.84C355.562 135.84 355.112 135.948 354.716 136.164C354.32 136.38 354.002 136.68 353.762 137.064C353.534 137.436 353.42 137.862 353.42 138.342C353.42 139.11 353.672 139.722 354.176 140.178C354.68 140.634 355.316 140.862 356.084 140.862ZM361.715 142.68V141.438H363.137C363.113 141.198 363.101 140.958 363.101 140.718C363.101 140.454 363.113 140.202 363.137 139.962H361.715V138.702H363.335C363.671 137.334 364.343 136.242 365.351 135.426C366.371 134.598 367.643 134.184 369.167 134.184C370.643 134.184 371.849 134.544 372.785 135.264C373.721 135.984 374.315 136.992 374.567 138.288H372.461C372.281 137.556 371.915 136.974 371.363 136.542C370.823 136.11 370.085 135.894 369.149 135.894C368.201 135.894 367.397 136.14 366.737 136.632C366.089 137.124 365.621 137.814 365.333 138.702H369.491V139.962H365.099C365.075 140.202 365.063 140.454 365.063 140.718C365.063 140.97 365.075 141.21 365.099 141.438H369.491V142.68H365.333C365.609 143.58 366.077 144.276 366.737 144.768C367.397 145.26 368.201 145.506 369.149 145.506C370.085 145.506 370.823 145.302 371.363 144.894C371.915 144.486 372.281 143.928 372.461 143.22H374.567C374.315 144.468 373.721 145.446 372.785 146.154C371.849 146.862 370.643 147.216 369.167 147.216C367.631 147.216 366.353 146.808 365.333 145.992C364.325 145.164 363.659 144.06 363.335 142.68H361.715Z" fill="#1A191E"/>
<rect y="198" width="400" height="83" rx="10" fill="white"/>
<rect x="16" y="214.5" width="50" height="50" rx="8" fill="#5BB5A2"/>
<path d="M40.5612 233.926C39.5392 233.926 37.9572 232.764 36.2912 232.806C34.0932 232.834 32.0772 234.08 30.9432 236.054C28.6612 240.016 30.3552 245.868 32.5812 249.088C33.6732 250.656 34.9612 252.42 36.6692 252.364C38.3072 252.294 38.9232 251.3 40.9112 251.3C42.8852 251.3 43.4452 252.364 45.1812 252.322C46.9452 252.294 48.0652 250.726 49.1432 249.144C50.3892 247.324 50.9072 245.56 50.9352 245.462C50.8932 245.448 47.5052 244.146 47.4632 240.226C47.4352 236.95 50.1372 235.382 50.2632 235.312C48.7232 233.058 46.3572 232.806 45.5312 232.75C43.3752 232.582 41.5692 233.926 40.5612 233.926ZM44.2012 230.622C45.1112 229.53 45.7132 228.004 45.5452 226.492C44.2432 226.548 42.6752 227.36 41.7372 228.452C40.8972 229.418 40.1692 230.972 40.3652 232.456C41.8072 232.568 43.2912 231.714 44.2012 230.622Z" fill="white"/>
<path d="M86.23 233V221.948H82.504V220.4H91.846V221.948H88.138V233H86.23ZM93.8171 233L91.1891 224.072H93.0971L94.8251 230.804L96.7691 224.072H98.8931L100.837 230.804L102.565 224.072H104.473L101.845 233H99.8831L97.8311 225.98L95.7791 233H93.8171ZM106.585 222.38C106.225 222.38 105.925 222.272 105.685 222.056C105.457 221.828 105.343 221.546 105.343 221.21C105.343 220.874 105.457 220.598 105.685 220.382C105.925 220.154 106.225 220.04 106.585 220.04C106.945 220.04 107.239 220.154 107.467 220.382C107.707 220.598 107.827 220.874 107.827 221.21C107.827 221.546 107.707 221.828 107.467 222.056C107.239 222.272 106.945 222.38 106.585 222.38ZM105.631 233V224.072H107.539V233H105.631ZM113.262 233C112.386 233 111.69 232.79 111.174 232.37C110.658 231.938 110.4 231.176 110.4 230.084V225.674H108.87V224.072H110.4L110.634 221.804H112.308V224.072H114.828V225.674H112.308V230.084C112.308 230.576 112.41 230.918 112.614 231.11C112.83 231.29 113.196 231.38 113.712 231.38H114.738V233H113.262ZM119.999 233C119.123 233 118.427 232.79 117.911 232.37C117.395 231.938 117.137 231.176 117.137 230.084V225.674H115.607V224.072H117.137L117.371 221.804H119.045V224.072H121.565V225.674H119.045V230.084C119.045 230.576 119.147 230.918 119.351 231.11C119.567 231.29 119.933 231.38 120.449 231.38H121.475V233H119.999ZM126.94 233.216C126.064 233.216 125.284 233.024 124.6 232.64C123.928 232.244 123.4 231.698 123.016 231.002C122.632 230.306 122.44 229.496 122.44 228.572C122.44 227.636 122.626 226.814 122.998 226.106C123.382 225.398 123.91 224.846 124.582 224.45C125.266 224.054 126.058 223.856 126.958 223.856C127.834 223.856 128.596 224.054 129.244 224.45C129.892 224.834 130.396 225.35 130.756 225.998C131.116 226.646 131.296 227.36 131.296 228.14C131.296 228.26 131.29 228.392 131.278 228.536C131.278 228.668 131.272 228.818 131.26 228.986H124.312C124.372 229.85 124.654 230.51 125.158 230.966C125.674 231.41 126.268 231.632 126.94 231.632C127.48 231.632 127.93 231.512 128.29 231.272C128.662 231.02 128.938 230.684 129.118 230.264H131.026C130.786 231.104 130.306 231.806 129.586 232.37C128.878 232.934 127.996 233.216 126.94 233.216ZM126.94 225.422C126.304 225.422 125.74 225.614 125.248 225.998C124.756 226.37 124.456 226.934 124.348 227.69H129.388C129.352 226.994 129.106 226.442 128.65 226.034C128.194 225.626 127.624 225.422 126.94 225.422ZM132.736 233V224.072H134.446L134.608 225.764C134.92 225.176 135.352 224.714 135.904 224.378C136.468 224.03 137.146 223.856 137.938 223.856V225.854H137.416C136.888 225.854 136.414 225.944 135.994 226.124C135.586 226.292 135.256 226.586 135.004 227.006C134.764 227.414 134.644 227.984 134.644 228.716V233H132.736Z" fill="#1A191E"/>
<path d="M84.2614 258H82.3977L86.5852 246.364H88.6136L92.8011 258H90.9375L87.6477 248.477H87.5568L84.2614 258ZM84.5739 253.443H90.6193V254.92H84.5739V253.443ZM97.4716 258.17C96.767 258.17 96.1383 257.991 95.5852 257.631C95.036 257.267 94.6042 256.75 94.2898 256.08C93.9792 255.405 93.8239 254.597 93.8239 253.653C93.8239 252.71 93.9811 251.903 94.2955 251.233C94.6136 250.562 95.0492 250.049 95.6023 249.693C96.1553 249.337 96.7822 249.159 97.483 249.159C98.0246 249.159 98.4602 249.25 98.7898 249.432C99.1231 249.61 99.3807 249.818 99.5625 250.057C99.7481 250.295 99.892 250.506 99.9943 250.688H100.097V246.364H101.795V258H100.136V256.642H99.9943C99.892 256.828 99.7443 257.04 99.5511 257.278C99.3617 257.517 99.1004 257.725 98.767 257.903C98.4337 258.081 98.0019 258.17 97.4716 258.17ZM97.8466 256.722C98.3352 256.722 98.7481 256.593 99.0852 256.335C99.4261 256.074 99.6837 255.712 99.858 255.25C100.036 254.788 100.125 254.25 100.125 253.636C100.125 253.03 100.038 252.5 99.8636 252.045C99.6894 251.591 99.4337 251.237 99.0966 250.983C98.7595 250.729 98.3428 250.602 97.8466 250.602C97.3352 250.602 96.9091 250.735 96.5682 251C96.2273 251.265 95.9697 251.627 95.7955 252.085C95.625 252.544 95.5398 253.061 95.5398 253.636C95.5398 254.22 95.6269 254.744 95.8011 255.21C95.9754 255.676 96.233 256.045 96.5739 256.318C96.9186 256.587 97.3428 256.722 97.8466 256.722ZM110.76 251.403L109.22 251.676C109.156 251.479 109.054 251.292 108.913 251.114C108.777 250.936 108.591 250.79 108.357 250.676C108.122 250.562 107.828 250.506 107.476 250.506C106.995 250.506 106.593 250.614 106.271 250.83C105.949 251.042 105.788 251.316 105.788 251.653C105.788 251.945 105.896 252.18 106.112 252.358C106.328 252.536 106.677 252.682 107.158 252.795L108.544 253.114C109.347 253.299 109.946 253.585 110.339 253.972C110.733 254.358 110.93 254.86 110.93 255.477C110.93 256 110.779 256.466 110.476 256.875C110.177 257.28 109.758 257.598 109.22 257.83C108.686 258.061 108.067 258.176 107.362 258.176C106.385 258.176 105.588 257.968 104.97 257.551C104.353 257.131 103.974 256.534 103.834 255.761L105.476 255.511C105.578 255.939 105.788 256.263 106.107 256.483C106.425 256.699 106.839 256.807 107.351 256.807C107.908 256.807 108.353 256.691 108.686 256.46C109.019 256.225 109.186 255.939 109.186 255.602C109.186 255.33 109.084 255.1 108.879 254.915C108.679 254.729 108.37 254.589 107.953 254.494L106.476 254.17C105.661 253.985 105.059 253.689 104.669 253.284C104.283 252.879 104.089 252.366 104.089 251.744C104.089 251.229 104.233 250.778 104.521 250.392C104.809 250.006 105.207 249.705 105.714 249.489C106.222 249.269 106.804 249.159 107.459 249.159C108.402 249.159 109.144 249.364 109.686 249.773C110.228 250.178 110.586 250.722 110.76 251.403Z" fill="#1A191E" fill-opacity="0.5"/>
<path d="M333.026 241.572V239.97H340.352V241.572H333.026ZM341.838 246V244.632C342.654 243.984 343.434 243.33 344.178 242.67C344.922 242.01 345.582 241.362 346.158 240.726C346.746 240.078 347.208 239.448 347.544 238.836C347.88 238.212 348.048 237.612 348.048 237.036C348.048 236.652 347.982 236.292 347.85 235.956C347.718 235.608 347.502 235.332 347.202 235.128C346.902 234.912 346.5 234.804 345.996 234.804C345.24 234.804 344.67 235.044 344.286 235.524C343.914 236.004 343.734 236.58 343.746 237.252H341.892C341.904 236.364 342.09 235.62 342.45 235.02C342.822 234.42 343.314 233.964 343.926 233.652C344.55 233.34 345.252 233.184 346.032 233.184C347.22 233.184 348.168 233.52 348.876 234.192C349.596 234.852 349.956 235.776 349.956 236.964C349.956 237.672 349.782 238.374 349.434 239.07C349.098 239.766 348.654 240.438 348.102 241.086C347.562 241.722 346.98 242.322 346.356 242.886C345.732 243.45 345.138 243.96 344.574 244.416H350.334V246H341.838ZM355.94 246.216C355.112 246.216 354.404 246.054 353.816 245.73C353.228 245.406 352.766 244.974 352.43 244.434C352.106 243.894 351.908 243.306 351.836 242.67H353.618C353.726 243.294 353.984 243.774 354.392 244.11C354.8 244.446 355.322 244.614 355.958 244.614C356.834 244.614 357.554 244.206 358.118 243.39C358.694 242.562 359 241.296 359.036 239.592C358.748 240.12 358.298 240.57 357.686 240.942C357.086 241.314 356.39 241.5 355.598 241.5C354.89 241.5 354.224 241.332 353.6 240.996C352.976 240.66 352.472 240.192 352.088 239.592C351.704 238.98 351.512 238.26 351.512 237.432C351.512 236.7 351.692 236.01 352.052 235.362C352.412 234.714 352.916 234.192 353.564 233.796C354.224 233.388 355.004 233.184 355.904 233.184C356.828 233.184 357.608 233.358 358.244 233.706C358.88 234.054 359.39 234.516 359.774 235.092C360.158 235.668 360.434 236.316 360.602 237.036C360.782 237.756 360.872 238.494 360.872 239.25C360.872 240.642 360.674 241.86 360.278 242.904C359.894 243.948 359.336 244.764 358.604 245.352C357.872 245.928 356.984 246.216 355.94 246.216ZM356.03 239.862C356.534 239.862 356.984 239.748 357.38 239.52C357.776 239.292 358.088 238.992 358.316 238.62C358.556 238.236 358.676 237.816 358.676 237.36C358.676 236.868 358.556 236.436 358.316 236.064C358.088 235.68 357.77 235.38 357.362 235.164C356.966 234.948 356.516 234.84 356.012 234.84C355.508 234.84 355.058 234.948 354.662 235.164C354.266 235.38 353.948 235.68 353.708 236.064C353.48 236.436 353.366 236.862 353.366 237.342C353.366 238.11 353.618 238.722 354.122 239.178C354.626 239.634 355.262 239.862 356.03 239.862ZM361.661 241.68V240.438H363.083C363.059 240.198 363.047 239.958 363.047 239.718C363.047 239.454 363.059 239.202 363.083 238.962H361.661V237.702H363.281C363.617 236.334 364.289 235.242 365.297 234.426C366.317 233.598 367.589 233.184 369.113 233.184C370.589 233.184 371.795 233.544 372.731 234.264C373.667 234.984 374.261 235.992 374.513 237.288H372.407C372.227 236.556 371.861 235.974 371.309 235.542C370.769 235.11 370.031 234.894 369.095 234.894C368.147 234.894 367.343 235.14 366.683 235.632C366.035 236.124 365.567 236.814 365.279 237.702H369.437V238.962H365.045C365.021 239.202 365.009 239.454 365.009 239.718C365.009 239.97 365.021 240.21 365.045 240.438H369.437V241.68H365.279C365.555 242.58 366.023 243.276 366.683 243.768C367.343 244.26 368.147 244.506 369.095 244.506C370.031 244.506 370.769 244.302 371.309 243.894C371.861 243.486 372.227 242.928 372.407 242.22H374.513C374.261 243.468 373.667 244.446 372.731 245.154C371.795 245.862 370.589 246.216 369.113 246.216C367.577 246.216 366.299 245.808 365.279 244.992C364.271 244.164 363.605 243.06 363.281 241.68H361.661Z" fill="#1A191E"/>
<rect y="297" width="400" height="83" rx="10" fill="white"/>
<rect x="16" y="313.5" width="50" height="50" rx="8" fill="#5BB5A2"/>
<path d="M40.5612 332.926C39.5392 332.926 37.9572 331.764 36.2912 331.806C34.0932 331.834 32.0772 333.08 30.9432 335.054C28.6612 339.016 30.3552 344.868 32.5812 348.088C33.6732 349.656 34.9612 351.42 36.6692 351.364C38.3072 351.294 38.9232 350.3 40.9112 350.3C42.8852 350.3 43.4452 351.364 45.1812 351.322C46.9452 351.294 48.0652 349.726 49.1432 348.144C50.3892 346.324 50.9072 344.56 50.9352 344.462C50.8932 344.448 47.5052 343.146 47.4632 339.226C47.4352 335.95 50.1372 334.382 50.2632 334.312C48.7232 332.058 46.3572 331.806 45.5312 331.75C43.3752 331.582 41.5692 332.926 40.5612 332.926ZM44.2012 329.622C45.1112 328.53 45.7132 327.004 45.5452 325.492C44.2432 325.548 42.6752 326.36 41.7372 327.452C40.8972 328.418 40.1692 329.972 40.3652 331.456C41.8072 331.568 43.2912 330.714 44.2012 329.622Z" fill="white"/>
<path d="M83.278 332V319.4H85.528L89.794 327.788L94.042 319.4H96.292V332H94.384V322.694L90.532 330.2H89.056L85.186 322.712V332H83.278ZM99.3202 321.38C98.9602 321.38 98.6602 321.272 98.4202 321.056C98.1922 320.828 98.0782 320.546 98.0782 320.21C98.0782 319.874 98.1922 319.598 98.4202 319.382C98.6602 319.154 98.9602 319.04 99.3202 319.04C99.6802 319.04 99.9742 319.154 100.202 319.382C100.442 319.598 100.562 319.874 100.562 320.21C100.562 320.546 100.442 320.828 100.202 321.056C99.9742 321.272 99.6802 321.38 99.3202 321.38ZM98.3662 332V323.072H100.274V332H98.3662ZM106.483 332.216C105.607 332.216 104.821 332.018 104.125 331.622C103.441 331.226 102.901 330.68 102.505 329.984C102.121 329.276 101.929 328.46 101.929 327.536C101.929 326.612 102.121 325.802 102.505 325.106C102.901 324.398 103.441 323.846 104.125 323.45C104.821 323.054 105.607 322.856 106.483 322.856C107.587 322.856 108.511 323.144 109.255 323.72C110.011 324.296 110.497 325.076 110.713 326.06H108.715C108.595 325.568 108.331 325.184 107.923 324.908C107.515 324.632 107.035 324.494 106.483 324.494C106.015 324.494 105.583 324.614 105.187 324.854C104.791 325.082 104.473 325.424 104.233 325.88C103.993 326.324 103.873 326.876 103.873 327.536C103.873 328.196 103.993 328.754 104.233 329.21C104.473 329.654 104.791 329.996 105.187 330.236C105.583 330.476 106.015 330.596 106.483 330.596C107.035 330.596 107.515 330.458 107.923 330.182C108.331 329.906 108.595 329.516 108.715 329.012H110.713C110.509 329.972 110.029 330.746 109.273 331.334C108.517 331.922 107.587 332.216 106.483 332.216ZM112.242 332V323.072H113.952L114.114 324.764C114.426 324.176 114.858 323.714 115.41 323.378C115.974 323.03 116.652 322.856 117.444 322.856V324.854H116.922C116.394 324.854 115.92 324.944 115.5 325.124C115.092 325.292 114.762 325.586 114.51 326.006C114.27 326.414 114.15 326.984 114.15 327.716V332H112.242ZM122.47 332.216C121.618 332.216 120.85 332.024 120.166 331.64C119.494 331.244 118.96 330.698 118.564 330.002C118.168 329.294 117.97 328.472 117.97 327.536C117.97 326.6 118.168 325.784 118.564 325.088C118.972 324.38 119.518 323.834 120.202 323.45C120.886 323.054 121.648 322.856 122.488 322.856C123.34 322.856 124.102 323.054 124.774 323.45C125.458 323.834 125.998 324.38 126.394 325.088C126.802 325.784 127.006 326.6 127.006 327.536C127.006 328.472 126.802 329.294 126.394 330.002C125.998 330.698 125.458 331.244 124.774 331.64C124.09 332.024 123.322 332.216 122.47 332.216ZM122.47 330.578C122.926 330.578 123.346 330.464 123.73 330.236C124.126 330.008 124.444 329.672 124.684 329.228C124.924 328.772 125.044 328.208 125.044 327.536C125.044 326.864 124.924 326.306 124.684 325.862C124.456 325.406 124.144 325.064 123.748 324.836C123.364 324.608 122.944 324.494 122.488 324.494C122.032 324.494 121.606 324.608 121.21 324.836C120.826 325.064 120.514 325.406 120.274 325.862C120.034 326.306 119.914 326.864 119.914 327.536C119.914 328.208 120.034 328.772 120.274 329.228C120.514 329.672 120.826 330.008 121.21 330.236C121.594 330.464 122.014 330.578 122.47 330.578ZM132.093 332.216C130.965 332.216 130.035 331.94 129.303 331.388C128.571 330.836 128.151 330.104 128.043 329.192H129.969C130.065 329.6 130.293 329.954 130.653 330.254C131.013 330.542 131.487 330.686 132.075 330.686C132.651 330.686 133.071 330.566 133.335 330.326C133.599 330.086 133.731 329.81 133.731 329.498C133.731 329.042 133.545 328.736 133.173 328.58C132.813 328.412 132.309 328.262 131.661 328.13C131.157 328.022 130.653 327.878 130.149 327.698C129.657 327.518 129.243 327.266 128.907 326.942C128.583 326.606 128.421 326.156 128.421 325.592C128.421 324.812 128.721 324.164 129.321 323.648C129.921 323.12 130.761 322.856 131.841 322.856C132.837 322.856 133.641 323.096 134.253 323.576C134.877 324.056 135.243 324.734 135.351 325.61H133.515C133.455 325.226 133.275 324.926 132.975 324.71C132.687 324.494 132.297 324.386 131.805 324.386C131.325 324.386 130.953 324.488 130.689 324.692C130.425 324.884 130.293 325.136 130.293 325.448C130.293 325.76 130.473 326.006 130.833 326.186C131.205 326.366 131.691 326.528 132.291 326.672C132.891 326.804 133.443 326.96 133.947 327.14C134.463 327.308 134.877 327.56 135.189 327.896C135.501 328.232 135.657 328.724 135.657 329.372C135.669 330.188 135.351 330.866 134.703 331.406C134.067 331.946 133.197 332.216 132.093 332.216ZM141.376 332.216C140.524 332.216 139.756 332.024 139.072 331.64C138.4 331.244 137.866 330.698 137.47 330.002C137.074 329.294 136.876 328.472 136.876 327.536C136.876 326.6 137.074 325.784 137.47 325.088C137.878 324.38 138.424 323.834 139.108 323.45C139.792 323.054 140.554 322.856 141.394 322.856C142.246 322.856 143.008 323.054 143.68 323.45C144.364 323.834 144.904 324.38 145.3 325.088C145.708 325.784 145.912 326.6 145.912 327.536C145.912 328.472 145.708 329.294 145.3 330.002C144.904 330.698 144.364 331.244 143.68 331.64C142.996 332.024 142.228 332.216 141.376 332.216ZM141.376 330.578C141.832 330.578 142.252 330.464 142.636 330.236C143.032 330.008 143.35 329.672 143.59 329.228C143.83 328.772 143.95 328.208 143.95 327.536C143.95 326.864 143.83 326.306 143.59 325.862C143.362 325.406 143.05 325.064 142.654 324.836C142.27 324.608 141.85 324.494 141.394 324.494C140.938 324.494 140.512 324.608 140.116 324.836C139.732 325.064 139.42 325.406 139.18 325.862C138.94 326.306 138.82 326.864 138.82 327.536C138.82 328.208 138.94 328.772 139.18 329.228C139.42 329.672 139.732 330.008 140.116 330.236C140.5 330.464 140.92 330.578 141.376 330.578ZM147.886 332V324.674H146.608V323.072H147.886V321.776C147.886 320.804 148.126 320.108 148.606 319.688C149.098 319.256 149.788 319.04 150.676 319.04H151.612V320.66H150.964C150.544 320.66 150.244 320.75 150.064 320.93C149.884 321.098 149.794 321.386 149.794 321.794V323.072H151.846V324.674H149.794V332H147.886ZM156.862 332C155.986 332 155.29 331.79 154.774 331.37C154.258 330.938 154 330.176 154 329.084V324.674H152.47V323.072H154L154.234 320.804H155.908V323.072H158.428V324.674H155.908V329.084C155.908 329.576 156.01 329.918 156.214 330.11C156.43 330.29 156.796 330.38 157.312 330.38H158.338V332H156.862Z" fill="#1A191E"/>
<path d="M93.3864 351.182C93.3864 352.424 93.1591 353.492 92.7045 354.386C92.25 355.277 91.6269 355.962 90.8352 356.443C90.0473 356.92 89.1515 357.159 88.1477 357.159C87.1402 357.159 86.2405 356.92 85.4489 356.443C84.661 355.962 84.0398 355.275 83.5852 354.381C83.1307 353.487 82.9034 352.42 82.9034 351.182C82.9034 349.939 83.1307 348.873 83.5852 347.983C84.0398 347.089 84.661 346.403 85.4489 345.926C86.2405 345.445 87.1402 345.205 88.1477 345.205C89.1515 345.205 90.0473 345.445 90.8352 345.926C91.6269 346.403 92.25 347.089 92.7045 347.983C93.1591 348.873 93.3864 349.939 93.3864 351.182ZM91.6477 351.182C91.6477 350.235 91.4943 349.437 91.1875 348.79C90.8845 348.138 90.4678 347.646 89.9375 347.312C89.411 346.975 88.8144 346.807 88.1477 346.807C87.4773 346.807 86.8788 346.975 86.3523 347.312C85.8258 347.646 85.4091 348.138 85.1023 348.79C84.7992 349.437 84.6477 350.235 84.6477 351.182C84.6477 352.129 84.7992 352.928 85.1023 353.58C85.4091 354.227 85.8258 354.72 86.3523 355.057C86.8788 355.39 87.4773 355.557 88.1477 355.557C88.8144 355.557 89.411 355.39 89.9375 355.057C90.4678 354.72 90.8845 354.227 91.1875 353.58C91.4943 352.928 91.6477 352.129 91.6477 351.182ZM99.5923 348.273V349.636H94.6605V348.273H99.5923ZM96.0128 357V347.261C96.0128 346.716 96.1321 346.263 96.3707 345.903C96.6094 345.54 96.9257 345.269 97.3196 345.091C97.7135 344.909 98.1416 344.818 98.6037 344.818C98.9446 344.818 99.2363 344.847 99.4787 344.903C99.7211 344.956 99.901 345.006 100.018 345.051L99.6207 346.426C99.5412 346.403 99.4389 346.377 99.3139 346.347C99.1889 346.312 99.0374 346.295 98.8594 346.295C98.4465 346.295 98.151 346.398 97.973 346.602C97.7988 346.807 97.7116 347.102 97.7116 347.489V357H96.0128ZM105.499 348.273V349.636H100.567V348.273H105.499ZM101.919 357V347.261C101.919 346.716 102.038 346.263 102.277 345.903C102.516 345.54 102.832 345.269 103.226 345.091C103.62 344.909 104.048 344.818 104.51 344.818C104.851 344.818 105.143 344.847 105.385 344.903C105.627 344.956 105.807 345.006 105.925 345.051L105.527 346.426C105.447 346.403 105.345 346.377 105.22 346.347C105.095 346.312 104.944 346.295 104.766 346.295C104.353 346.295 104.057 346.398 103.879 346.602C103.705 346.807 103.618 347.102 103.618 347.489V357H101.919ZM107.251 357V348.273H108.95V357H107.251ZM108.109 346.926C107.814 346.926 107.56 346.828 107.348 346.631C107.14 346.43 107.036 346.191 107.036 345.915C107.036 345.634 107.14 345.396 107.348 345.199C107.56 344.998 107.814 344.898 108.109 344.898C108.405 344.898 108.657 344.998 108.865 345.199C109.077 345.396 109.183 345.634 109.183 345.915C109.183 346.191 109.077 346.43 108.865 346.631C108.657 346.828 108.405 346.926 108.109 346.926ZM114.912 357.176C114.067 357.176 113.34 356.985 112.73 356.602C112.124 356.216 111.658 355.684 111.332 355.006C111.007 354.328 110.844 353.551 110.844 352.676C110.844 351.79 111.01 351.008 111.344 350.33C111.677 349.648 112.147 349.116 112.753 348.733C113.359 348.35 114.073 348.159 114.895 348.159C115.558 348.159 116.149 348.282 116.668 348.528C117.187 348.771 117.605 349.112 117.923 349.551C118.245 349.991 118.437 350.504 118.497 351.091H116.844C116.753 350.682 116.545 350.33 116.219 350.034C115.897 349.739 115.465 349.591 114.923 349.591C114.45 349.591 114.035 349.716 113.679 349.966C113.327 350.212 113.052 350.564 112.855 351.023C112.658 351.477 112.56 352.015 112.56 352.636C112.56 353.273 112.656 353.822 112.849 354.284C113.043 354.746 113.315 355.104 113.668 355.358C114.024 355.612 114.442 355.739 114.923 355.739C115.245 355.739 115.537 355.68 115.798 355.562C116.063 355.441 116.285 355.269 116.463 355.045C116.645 354.822 116.772 354.553 116.844 354.239H118.497C118.437 354.803 118.253 355.307 117.946 355.75C117.639 356.193 117.228 356.542 116.713 356.795C116.202 357.049 115.601 357.176 114.912 357.176ZM124.075 357.176C123.215 357.176 122.475 356.992 121.854 356.625C121.236 356.254 120.759 355.733 120.422 355.062C120.089 354.388 119.922 353.598 119.922 352.693C119.922 351.799 120.089 351.011 120.422 350.33C120.759 349.648 121.229 349.116 121.831 348.733C122.437 348.35 123.145 348.159 123.956 348.159C124.448 348.159 124.926 348.241 125.388 348.403C125.85 348.566 126.265 348.822 126.632 349.17C127 349.519 127.289 349.972 127.501 350.528C127.714 351.081 127.82 351.754 127.82 352.545V353.148H120.882V351.875H126.155C126.155 351.428 126.064 351.032 125.882 350.688C125.7 350.339 125.445 350.064 125.115 349.864C124.789 349.663 124.407 349.562 123.967 349.562C123.49 349.562 123.073 349.68 122.717 349.915C122.365 350.146 122.092 350.449 121.899 350.824C121.71 351.195 121.615 351.598 121.615 352.034V353.028C121.615 353.612 121.717 354.108 121.922 354.517C122.13 354.926 122.42 355.239 122.791 355.455C123.162 355.667 123.596 355.773 124.092 355.773C124.414 355.773 124.708 355.727 124.973 355.636C125.238 355.542 125.467 355.402 125.661 355.216C125.854 355.03 126.001 354.801 126.104 354.528L127.712 354.818C127.583 355.292 127.352 355.706 127.018 356.062C126.689 356.415 126.274 356.689 125.774 356.886C125.278 357.08 124.712 357.176 124.075 357.176ZM140.422 348.42C140.361 347.883 140.111 347.466 139.672 347.17C139.232 346.871 138.679 346.722 138.013 346.722C137.536 346.722 137.123 346.797 136.774 346.949C136.426 347.097 136.155 347.301 135.962 347.562C135.772 347.82 135.678 348.114 135.678 348.443C135.678 348.72 135.742 348.958 135.871 349.159C136.003 349.36 136.176 349.528 136.388 349.665C136.604 349.797 136.835 349.909 137.081 350C137.327 350.087 137.564 350.159 137.791 350.216L138.928 350.511C139.299 350.602 139.679 350.725 140.07 350.881C140.46 351.036 140.821 351.241 141.155 351.494C141.488 351.748 141.757 352.062 141.962 352.438C142.17 352.812 142.274 353.261 142.274 353.784C142.274 354.443 142.104 355.028 141.763 355.54C141.426 356.051 140.935 356.455 140.291 356.75C139.651 357.045 138.876 357.193 137.967 357.193C137.096 357.193 136.342 357.055 135.706 356.778C135.07 356.502 134.571 356.11 134.212 355.602C133.852 355.091 133.653 354.485 133.615 353.784H135.376C135.411 354.205 135.547 354.555 135.786 354.835C136.028 355.112 136.337 355.318 136.712 355.455C137.09 355.587 137.505 355.653 137.956 355.653C138.452 355.653 138.893 355.576 139.28 355.42C139.67 355.261 139.977 355.042 140.2 354.761C140.424 354.477 140.536 354.146 140.536 353.767C140.536 353.422 140.437 353.14 140.24 352.92C140.047 352.701 139.784 352.519 139.45 352.375C139.121 352.231 138.748 352.104 138.331 351.994L136.956 351.619C136.024 351.366 135.286 350.992 134.74 350.5C134.198 350.008 133.928 349.356 133.928 348.545C133.928 347.875 134.109 347.29 134.473 346.79C134.837 346.29 135.329 345.902 135.95 345.625C136.571 345.345 137.272 345.205 138.053 345.205C138.84 345.205 139.536 345.343 140.138 345.619C140.744 345.896 141.221 346.277 141.57 346.761C141.918 347.242 142.1 347.795 142.115 348.42H140.422ZM149.764 353.381V348.273H151.469V357H149.798V355.489H149.707C149.507 355.955 149.185 356.343 148.741 356.653C148.302 356.96 147.755 357.114 147.099 357.114C146.539 357.114 146.043 356.991 145.611 356.744C145.183 356.494 144.846 356.125 144.599 355.636C144.357 355.148 144.236 354.544 144.236 353.824V348.273H145.935V353.619C145.935 354.214 146.099 354.687 146.429 355.04C146.759 355.392 147.187 355.568 147.713 355.568C148.031 355.568 148.348 355.489 148.662 355.33C148.98 355.17 149.243 354.93 149.452 354.608C149.664 354.286 149.768 353.877 149.764 353.381ZM153.751 357V348.273H155.45V357H153.751ZM154.609 346.926C154.314 346.926 154.06 346.828 153.848 346.631C153.64 346.43 153.536 346.191 153.536 345.915C153.536 345.634 153.64 345.396 153.848 345.199C154.06 344.998 154.314 344.898 154.609 344.898C154.905 344.898 155.157 344.998 155.365 345.199C155.577 345.396 155.683 345.634 155.683 345.915C155.683 346.191 155.577 346.43 155.365 346.631C155.157 346.828 154.905 346.926 154.609 346.926ZM161.81 348.273V349.636H157.043V348.273H161.81ZM158.321 346.182H160.02V354.438C160.02 354.767 160.069 355.015 160.168 355.182C160.266 355.345 160.393 355.456 160.548 355.517C160.707 355.574 160.88 355.602 161.065 355.602C161.202 355.602 161.321 355.593 161.423 355.574C161.526 355.555 161.605 355.54 161.662 355.528L161.969 356.932C161.87 356.97 161.73 357.008 161.548 357.045C161.366 357.087 161.139 357.11 160.866 357.114C160.42 357.121 160.003 357.042 159.616 356.875C159.23 356.708 158.918 356.451 158.679 356.102C158.44 355.754 158.321 355.316 158.321 354.79V346.182ZM167.357 357.176C166.497 357.176 165.756 356.992 165.135 356.625C164.518 356.254 164.04 355.733 163.703 355.062C163.37 354.388 163.203 353.598 163.203 352.693C163.203 351.799 163.37 351.011 163.703 350.33C164.04 349.648 164.51 349.116 165.112 348.733C165.718 348.35 166.427 348.159 167.237 348.159C167.73 348.159 168.207 348.241 168.669 348.403C169.131 348.566 169.546 348.822 169.913 349.17C170.281 349.519 170.571 349.972 170.783 350.528C170.995 351.081 171.101 351.754 171.101 352.545V353.148H164.163V351.875H169.436C169.436 351.428 169.345 351.032 169.163 350.688C168.982 350.339 168.726 350.064 168.396 349.864C168.071 349.663 167.688 349.562 167.249 349.562C166.771 349.562 166.355 349.68 165.999 349.915C165.646 350.146 165.374 350.449 165.18 350.824C164.991 351.195 164.896 351.598 164.896 352.034V353.028C164.896 353.612 164.999 354.108 165.203 354.517C165.411 354.926 165.701 355.239 166.072 355.455C166.444 355.667 166.877 355.773 167.374 355.773C167.696 355.773 167.989 355.727 168.254 355.636C168.519 355.542 168.749 355.402 168.942 355.216C169.135 355.03 169.283 354.801 169.385 354.528L170.993 354.818C170.864 355.292 170.633 355.706 170.3 356.062C169.97 356.415 169.555 356.689 169.055 356.886C168.559 357.08 167.993 357.176 167.357 357.176Z" fill="#1A191E" fill-opacity="0.5"/>
<path d="M327.026 340.572V338.97H334.352V340.572H327.026ZM337.386 345V334.56L335.352 335.028V333.624L338.142 332.4H339.366V345H337.386ZM347.128 345V342.48H340.81V340.968L346.822 332.4H349.018V340.824H350.782V342.48H349.018V345H347.128ZM342.88 340.824H347.236V334.506L342.88 340.824ZM356.29 345.216C355.462 345.216 354.754 345.054 354.166 344.73C353.578 344.406 353.116 343.974 352.78 343.434C352.456 342.894 352.258 342.306 352.186 341.67H353.968C354.076 342.294 354.334 342.774 354.742 343.11C355.15 343.446 355.672 343.614 356.308 343.614C357.184 343.614 357.904 343.206 358.468 342.39C359.044 341.562 359.35 340.296 359.386 338.592C359.098 339.12 358.648 339.57 358.036 339.942C357.436 340.314 356.74 340.5 355.948 340.5C355.24 340.5 354.574 340.332 353.95 339.996C353.326 339.66 352.822 339.192 352.438 338.592C352.054 337.98 351.862 337.26 351.862 336.432C351.862 335.7 352.042 335.01 352.402 334.362C352.762 333.714 353.266 333.192 353.914 332.796C354.574 332.388 355.354 332.184 356.254 332.184C357.178 332.184 357.958 332.358 358.594 332.706C359.23 333.054 359.74 333.516 360.124 334.092C360.508 334.668 360.784 335.316 360.952 336.036C361.132 336.756 361.222 337.494 361.222 338.25C361.222 339.642 361.024 340.86 360.628 341.904C360.244 342.948 359.686 343.764 358.954 344.352C358.222 344.928 357.334 345.216 356.29 345.216ZM356.38 338.862C356.884 338.862 357.334 338.748 357.73 338.52C358.126 338.292 358.438 337.992 358.666 337.62C358.906 337.236 359.026 336.816 359.026 336.36C359.026 335.868 358.906 335.436 358.666 335.064C358.438 334.68 358.12 334.38 357.712 334.164C357.316 333.948 356.866 333.84 356.362 333.84C355.858 333.84 355.408 333.948 355.012 334.164C354.616 334.38 354.298 334.68 354.058 335.064C353.83 335.436 353.716 335.862 353.716 336.342C353.716 337.11 353.968 337.722 354.472 338.178C354.976 338.634 355.612 338.862 356.38 338.862ZM362.011 340.68V339.438H363.433C363.409 339.198 363.397 338.958 363.397 338.718C363.397 338.454 363.409 338.202 363.433 337.962H362.011V336.702H363.631C363.967 335.334 364.639 334.242 365.647 333.426C366.667 332.598 367.939 332.184 369.463 332.184C370.939 332.184 372.145 332.544 373.081 333.264C374.017 333.984 374.611 334.992 374.863 336.288H372.757C372.577 335.556 372.211 334.974 371.659 334.542C371.119 334.11 370.381 333.894 369.445 333.894C368.497 333.894 367.693 334.14 367.033 334.632C366.385 335.124 365.917 335.814 365.629 336.702H369.787V337.962H365.395C365.371 338.202 365.359 338.454 365.359 338.718C365.359 338.97 365.371 339.21 365.395 339.438H369.787V340.68H365.629C365.905 341.58 366.373 342.276 367.033 342.768C367.693 343.26 368.497 343.506 369.445 343.506C370.381 343.506 371.119 343.302 371.659 342.894C372.211 342.486 372.577 341.928 372.757 341.22H374.863C374.611 342.468 374.017 343.446 373.081 344.154C372.145 344.862 370.939 345.216 369.463 345.216C367.927 345.216 366.649 344.808 365.629 343.992C364.621 343.164 363.955 342.06 363.631 340.68H362.011Z" fill="#1A191E"/>
<rect y="396" width="400" height="83" rx="10" fill="white"/>
<rect x="16" y="412.5" width="50" height="50" rx="8" fill="#5BB5A2"/>
<path d="M40.5612 431.926C39.5392 431.926 37.9572 430.764 36.2912 430.806C34.0932 430.834 32.0772 432.08 30.9432 434.054C28.6612 438.016 30.3552 443.868 32.5812 447.088C33.6732 448.656 34.9612 450.42 36.6692 450.364C38.3072 450.294 38.9232 449.3 40.9112 449.3C42.8852 449.3 43.4452 450.364 45.1812 450.322C46.9452 450.294 48.0652 448.726 49.1432 447.144C50.3892 445.324 50.9072 443.56 50.9352 443.462C50.8932 443.448 47.5052 442.146 47.4632 438.226C47.4352 434.95 50.1372 433.382 50.2632 433.312C48.7232 431.058 46.3572 430.806 45.5312 430.75C43.3752 430.582 41.5692 431.926 40.5612 431.926ZM44.2012 428.622C45.1112 427.53 45.7132 426.004 45.5452 424.492C44.2432 424.548 42.6752 425.36 41.7372 426.452C40.8972 427.418 40.1692 428.972 40.3652 430.456C41.8072 430.568 43.2912 429.714 44.2012 428.622Z" fill="white"/>
<path d="M83.278 431V418.4H87.364C88.84 418.4 90.052 418.658 91 419.174C91.96 419.69 92.668 420.422 93.124 421.37C93.592 422.306 93.826 423.422 93.826 424.718C93.826 426.002 93.592 427.118 93.124 428.066C92.668 429.002 91.96 429.728 91 430.244C90.052 430.748 88.84 431 87.364 431H83.278ZM85.186 429.38H87.292C88.432 429.38 89.332 429.194 89.992 428.822C90.664 428.45 91.144 427.916 91.432 427.22C91.732 426.524 91.882 425.69 91.882 424.718C91.882 423.746 91.732 422.906 91.432 422.198C91.144 421.49 90.664 420.95 89.992 420.578C89.332 420.194 88.432 420.002 87.292 420.002H85.186V429.38ZM95.3223 431V422.072H97.0323L97.1943 423.764C97.5063 423.176 97.9383 422.714 98.4903 422.378C99.0543 422.03 99.7323 421.856 100.524 421.856V423.854H100.002C99.4743 423.854 99.0003 423.944 98.5803 424.124C98.1723 424.292 97.8423 424.586 97.5903 425.006C97.3503 425.414 97.2303 425.984 97.2303 426.716V431H95.3223ZM105.55 431.216C104.698 431.216 103.93 431.024 103.246 430.64C102.574 430.244 102.04 429.698 101.644 429.002C101.248 428.294 101.05 427.472 101.05 426.536C101.05 425.6 101.248 424.784 101.644 424.088C102.052 423.38 102.598 422.834 103.282 422.45C103.966 422.054 104.728 421.856 105.568 421.856C106.42 421.856 107.182 422.054 107.854 422.45C108.538 422.834 109.078 423.38 109.474 424.088C109.882 424.784 110.086 425.6 110.086 426.536C110.086 427.472 109.882 428.294 109.474 429.002C109.078 429.698 108.538 430.244 107.854 430.64C107.17 431.024 106.402 431.216 105.55 431.216ZM105.55 429.578C106.006 429.578 106.426 429.464 106.81 429.236C107.206 429.008 107.524 428.672 107.764 428.228C108.004 427.772 108.124 427.208 108.124 426.536C108.124 425.864 108.004 425.306 107.764 424.862C107.536 424.406 107.224 424.064 106.828 423.836C106.444 423.608 106.024 423.494 105.568 423.494C105.112 423.494 104.686 423.608 104.29 423.836C103.906 424.064 103.594 424.406 103.354 424.862C103.114 425.306 102.994 425.864 102.994 426.536C102.994 427.208 103.114 427.772 103.354 428.228C103.594 428.672 103.906 429.008 104.29 429.236C104.674 429.464 105.094 429.578 105.55 429.578ZM111.609 434.96V422.072H113.319L113.517 423.458C113.805 423.038 114.201 422.666 114.705 422.342C115.209 422.018 115.857 421.856 116.649 421.856C117.513 421.856 118.275 422.06 118.935 422.468C119.595 422.876 120.111 423.434 120.483 424.142C120.867 424.85 121.059 425.654 121.059 426.554C121.059 427.454 120.867 428.258 120.483 428.966C120.111 429.662 119.595 430.214 118.935 430.622C118.275 431.018 117.507 431.216 116.631 431.216C115.935 431.216 115.317 431.078 114.777 430.802C114.249 430.526 113.829 430.136 113.517 429.632V434.96H111.609ZM116.307 429.56C117.123 429.56 117.795 429.284 118.323 428.732C118.851 428.168 119.115 427.436 119.115 426.536C119.115 425.948 118.995 425.426 118.755 424.97C118.515 424.514 118.185 424.16 117.765 423.908C117.345 423.644 116.859 423.512 116.307 423.512C115.491 423.512 114.819 423.794 114.291 424.358C113.775 424.922 113.517 425.648 113.517 426.536C113.517 427.436 113.775 428.168 114.291 428.732C114.819 429.284 115.491 429.56 116.307 429.56ZM127.605 431.216C126.909 431.216 126.291 431.078 125.751 430.802C125.223 430.526 124.803 430.136 124.491 429.632L124.293 431H122.583V418.04H124.491V423.458C124.779 423.038 125.175 422.666 125.679 422.342C126.183 422.018 126.831 421.856 127.623 421.856C128.487 421.856 129.249 422.06 129.909 422.468C130.569 422.876 131.085 423.434 131.457 424.142C131.841 424.85 132.033 425.654 132.033 426.554C132.033 427.454 131.841 428.258 131.457 428.966C131.085 429.662 130.569 430.214 129.909 430.622C129.249 431.018 128.481 431.216 127.605 431.216ZM127.281 429.56C128.097 429.56 128.769 429.284 129.297 428.732C129.825 428.168 130.089 427.436 130.089 426.536C130.089 425.948 129.969 425.426 129.729 424.97C129.489 424.514 129.159 424.16 128.739 423.908C128.319 423.644 127.833 423.512 127.281 423.512C126.465 423.512 125.793 423.794 125.265 424.358C124.749 424.922 124.491 425.648 124.491 426.536C124.491 427.436 124.749 428.168 125.265 428.732C125.793 429.284 126.465 429.56 127.281 429.56ZM137.733 431.216C136.881 431.216 136.113 431.024 135.429 430.64C134.757 430.244 134.223 429.698 133.827 429.002C133.431 428.294 133.233 427.472 133.233 426.536C133.233 425.6 133.431 424.784 133.827 424.088C134.235 423.38 134.781 422.834 135.465 422.45C136.149 422.054 136.911 421.856 137.751 421.856C138.603 421.856 139.365 422.054 140.037 422.45C140.721 422.834 141.261 423.38 141.657 424.088C142.065 424.784 142.269 425.6 142.269 426.536C142.269 427.472 142.065 428.294 141.657 429.002C141.261 429.698 140.721 430.244 140.037 430.64C139.353 431.024 138.585 431.216 137.733 431.216ZM137.733 429.578C138.189 429.578 138.609 429.464 138.993 429.236C139.389 429.008 139.707 428.672 139.947 428.228C140.187 427.772 140.307 427.208 140.307 426.536C140.307 425.864 140.187 425.306 139.947 424.862C139.719 424.406 139.407 424.064 139.011 423.836C138.627 423.608 138.207 423.494 137.751 423.494C137.295 423.494 136.869 423.608 136.473 423.836C136.089 424.064 135.777 424.406 135.537 424.862C135.297 425.306 135.177 425.864 135.177 426.536C135.177 427.208 135.297 427.772 135.537 428.228C135.777 428.672 136.089 429.008 136.473 429.236C136.857 429.464 137.277 429.578 137.733 429.578ZM142.489 431L145.657 426.536L142.489 422.072H144.523L146.917 425.492L149.293 422.072H151.345L148.177 426.536L151.345 431H149.293L146.917 427.58L144.523 431H142.489Z" fill="#1A191E"/>
<path d="M92.9432 448.148H91.1705C91.1023 447.769 90.9754 447.436 90.7898 447.148C90.6042 446.86 90.3769 446.616 90.108 446.415C89.839 446.214 89.5379 446.062 89.2045 445.96C88.875 445.858 88.5246 445.807 88.1534 445.807C87.483 445.807 86.8826 445.975 86.3523 446.312C85.8258 446.65 85.4091 447.144 85.1023 447.795C84.7992 448.447 84.6477 449.242 84.6477 450.182C84.6477 451.129 84.7992 451.928 85.1023 452.58C85.4091 453.231 85.8277 453.723 86.358 454.057C86.8883 454.39 87.4848 454.557 88.1477 454.557C88.5152 454.557 88.8636 454.508 89.1932 454.409C89.5265 454.307 89.8277 454.157 90.0966 453.96C90.3655 453.763 90.5928 453.523 90.7784 453.239C90.9678 452.951 91.0985 452.621 91.1705 452.25L92.9432 452.256C92.8485 452.828 92.6648 453.354 92.392 453.835C92.1231 454.312 91.7765 454.725 91.3523 455.074C90.9318 455.419 90.4508 455.686 89.9091 455.875C89.3674 456.064 88.7765 456.159 88.1364 456.159C87.1288 456.159 86.2311 455.92 85.4432 455.443C84.6553 454.962 84.0341 454.275 83.5795 453.381C83.1288 452.487 82.9034 451.42 82.9034 450.182C82.9034 448.939 83.1307 447.873 83.5852 446.983C84.0398 446.089 84.661 445.403 85.4489 444.926C86.2367 444.445 87.1326 444.205 88.1364 444.205C88.7538 444.205 89.3295 444.294 89.8636 444.472C90.4015 444.646 90.8845 444.903 91.3125 445.244C91.7405 445.581 92.0947 445.994 92.375 446.483C92.6553 446.968 92.8447 447.523 92.9432 448.148ZM96.6065 444.364V456H94.9077V444.364H96.6065ZM102.568 456.176C101.75 456.176 101.036 455.989 100.426 455.614C99.8163 455.239 99.3428 454.714 99.0057 454.04C98.6686 453.366 98.5 452.578 98.5 451.676C98.5 450.771 98.6686 449.979 99.0057 449.301C99.3428 448.623 99.8163 448.097 100.426 447.722C101.036 447.347 101.75 447.159 102.568 447.159C103.386 447.159 104.1 447.347 104.71 447.722C105.32 448.097 105.794 448.623 106.131 449.301C106.468 449.979 106.636 450.771 106.636 451.676C106.636 452.578 106.468 453.366 106.131 454.04C105.794 454.714 105.32 455.239 104.71 455.614C104.1 455.989 103.386 456.176 102.568 456.176ZM102.574 454.75C103.104 454.75 103.544 454.61 103.892 454.33C104.241 454.049 104.498 453.676 104.665 453.21C104.835 452.744 104.92 452.231 104.92 451.67C104.92 451.114 104.835 450.602 104.665 450.136C104.498 449.667 104.241 449.29 103.892 449.006C103.544 448.722 103.104 448.58 102.574 448.58C102.04 448.58 101.597 448.722 101.244 449.006C100.896 449.29 100.636 449.667 100.466 450.136C100.299 450.602 100.216 451.114 100.216 451.67C100.216 452.231 100.299 452.744 100.466 453.21C100.636 453.676 100.896 454.049 101.244 454.33C101.597 454.61 102.04 454.75 102.574 454.75ZM114.061 452.381V447.273H115.766V456H114.095V454.489H114.004C113.804 454.955 113.482 455.343 113.038 455.653C112.599 455.96 112.052 456.114 111.396 456.114C110.836 456.114 110.339 455.991 109.908 455.744C109.48 455.494 109.143 455.125 108.896 454.636C108.654 454.148 108.533 453.544 108.533 452.824V447.273H110.232V452.619C110.232 453.214 110.396 453.687 110.726 454.04C111.055 454.392 111.483 454.568 112.01 454.568C112.328 454.568 112.644 454.489 112.959 454.33C113.277 454.17 113.54 453.93 113.749 453.608C113.961 453.286 114.065 452.877 114.061 452.381ZM121.315 456.17C120.611 456.17 119.982 455.991 119.429 455.631C118.88 455.267 118.448 454.75 118.134 454.08C117.823 453.405 117.668 452.597 117.668 451.653C117.668 450.71 117.825 449.903 118.139 449.233C118.457 448.562 118.893 448.049 119.446 447.693C119.999 447.337 120.626 447.159 121.327 447.159C121.868 447.159 122.304 447.25 122.634 447.432C122.967 447.61 123.224 447.818 123.406 448.057C123.592 448.295 123.736 448.506 123.838 448.688H123.94V444.364H125.639V456H123.98V454.642H123.838C123.736 454.828 123.588 455.04 123.395 455.278C123.205 455.517 122.944 455.725 122.611 455.903C122.277 456.081 121.846 456.17 121.315 456.17ZM121.69 454.722C122.179 454.722 122.592 454.593 122.929 454.335C123.27 454.074 123.527 453.712 123.702 453.25C123.88 452.788 123.969 452.25 123.969 451.636C123.969 451.03 123.882 450.5 123.707 450.045C123.533 449.591 123.277 449.237 122.94 448.983C122.603 448.729 122.187 448.602 121.69 448.602C121.179 448.602 120.753 448.735 120.412 449C120.071 449.265 119.813 449.627 119.639 450.085C119.469 450.544 119.384 451.061 119.384 451.636C119.384 452.22 119.471 452.744 119.645 453.21C119.819 453.676 120.077 454.045 120.418 454.318C120.762 454.587 121.187 454.722 121.69 454.722Z" fill="#1A191E" fill-opacity="0.5"/>
<path d="M338.026 439.572V437.97H345.352V439.572H338.026ZM348.386 444V433.56L346.352 434.028V432.624L349.142 431.4H350.366V444H348.386ZM358.128 444V441.48H351.81V439.968L357.822 431.4H360.018V439.824H361.782V441.48H360.018V444H358.128ZM353.88 439.824H358.236V433.506L353.88 439.824ZM362.178 439.68V438.438H363.6C363.576 438.198 363.564 437.958 363.564 437.718C363.564 437.454 363.576 437.202 363.6 436.962H362.178V435.702H363.798C364.134 434.334 364.806 433.242 365.814 432.426C366.834 431.598 368.106 431.184 369.63 431.184C371.106 431.184 372.312 431.544 373.248 432.264C374.184 432.984 374.778 433.992 375.03 435.288H372.924C372.744 434.556 372.378 433.974 371.826 433.542C371.286 433.11 370.548 432.894 369.612 432.894C368.664 432.894 367.86 433.14 367.2 433.632C366.552 434.124 366.084 434.814 365.796 435.702H369.954V436.962H365.562C365.538 437.202 365.526 437.454 365.526 437.718C365.526 437.97 365.538 438.21 365.562 438.438H369.954V439.68H365.796C366.072 440.58 366.54 441.276 367.2 441.768C367.86 442.26 368.664 442.506 369.612 442.506C370.548 442.506 371.286 442.302 371.826 441.894C372.378 441.486 372.744 440.928 372.924 440.22H375.03C374.778 441.468 374.184 442.446 373.248 443.154C372.312 443.862 371.106 444.216 369.63 444.216C368.094 444.216 366.816 443.808 365.796 442.992C364.788 442.164 364.122 441.06 363.798 439.68H362.178Z" fill="#1A191E"/>
<rect y="495" width="400" height="83" rx="10" fill="white"/>
<rect x="16" y="511.5" width="50" height="50" rx="8" fill="#5BB5A2"/>
<path d="M40.5612 530.926C39.5392 530.926 37.9572 529.764 36.2912 529.806C34.0932 529.834 32.0772 531.08 30.9432 533.054C28.6612 537.016 30.3552 542.868 32.5812 546.088C33.6732 547.656 34.9612 549.42 36.6692 549.364C38.3072 549.294 38.9232 548.3 40.9112 548.3C42.8852 548.3 43.4452 549.364 45.1812 549.322C46.9452 549.294 48.0652 547.726 49.1432 546.144C50.3892 544.324 50.9072 542.56 50.9352 542.462C50.8932 542.448 47.5052 541.146 47.4632 537.226C47.4352 533.95 50.1372 532.382 50.2632 532.312C48.7232 530.058 46.3572 529.806 45.5312 529.75C43.3752 529.582 41.5692 530.926 40.5612 530.926ZM44.2012 527.622C45.1112 526.53 45.7132 525.004 45.5452 523.492C44.2432 523.548 42.6752 524.36 41.7372 525.452C40.8972 526.418 40.1692 527.972 40.3652 529.456C41.8072 529.568 43.2912 528.714 44.2012 527.622Z" fill="white"/>
<path d="M83.278 530V517.4H87.688C88.672 517.4 89.488 517.568 90.136 517.904C90.784 518.228 91.264 518.678 91.576 519.254C91.9 519.818 92.062 520.46 92.062 521.18C92.062 521.864 91.906 522.494 91.594 523.07C91.294 523.634 90.82 524.084 90.172 524.42C89.524 524.756 88.696 524.924 87.688 524.924H85.186V530H83.278ZM85.186 523.358H87.598C88.498 523.358 89.14 523.166 89.524 522.782C89.92 522.386 90.118 521.852 90.118 521.18C90.118 520.484 89.92 519.944 89.524 519.56C89.14 519.164 88.498 518.966 87.598 518.966H85.186V523.358ZM95.8677 530.216C95.1117 530.216 94.4877 530.09 93.9957 529.838C93.5037 529.586 93.1377 529.256 92.8977 528.848C92.6577 528.428 92.5377 527.972 92.5377 527.48C92.5377 526.616 92.8737 525.932 93.5457 525.428C94.2177 524.924 95.1777 524.672 96.4257 524.672H98.7657V524.51C98.7657 523.814 98.5737 523.292 98.1897 522.944C97.8177 522.596 97.3317 522.422 96.7317 522.422C96.2037 522.422 95.7417 522.554 95.3457 522.818C94.9617 523.07 94.7277 523.448 94.6437 523.952H92.7357C92.7957 523.304 93.0117 522.752 93.3837 522.296C93.7677 521.828 94.2477 521.474 94.8237 521.234C95.4117 520.982 96.0537 520.856 96.7497 520.856C97.9977 520.856 98.9637 521.186 99.6477 521.846C100.332 522.494 100.674 523.382 100.674 524.51V530H99.0177L98.8557 528.47C98.6037 528.962 98.2377 529.376 97.7577 529.712C97.2777 530.048 96.6477 530.216 95.8677 530.216ZM96.2457 528.668C96.7617 528.668 97.1937 528.548 97.5417 528.308C97.9017 528.056 98.1777 527.726 98.3697 527.318C98.5737 526.91 98.6997 526.46 98.7477 525.968H96.6237C95.8677 525.968 95.3277 526.1 95.0037 526.364C94.6917 526.628 94.5357 526.958 94.5357 527.354C94.5357 527.762 94.6857 528.086 94.9857 528.326C95.2977 528.554 95.7177 528.668 96.2457 528.668ZM103.121 533.96L105.263 529.262H104.741L101.213 521.072H103.283L106.019 527.678L108.881 521.072H110.897L105.137 533.96H103.121ZM111.926 533.96V521.072H113.636L113.834 522.458C114.122 522.038 114.518 521.666 115.022 521.342C115.526 521.018 116.174 520.856 116.966 520.856C117.83 520.856 118.592 521.06 119.252 521.468C119.912 521.876 120.428 522.434 120.8 523.142C121.184 523.85 121.376 524.654 121.376 525.554C121.376 526.454 121.184 527.258 120.8 527.966C120.428 528.662 119.912 529.214 119.252 529.622C118.592 530.018 117.824 530.216 116.948 530.216C116.252 530.216 115.634 530.078 115.094 529.802C114.566 529.526 114.146 529.136 113.834 528.632V533.96H111.926ZM116.624 528.56C117.44 528.56 118.112 528.284 118.64 527.732C119.168 527.168 119.432 526.436 119.432 525.536C119.432 524.948 119.312 524.426 119.072 523.97C118.832 523.514 118.502 523.16 118.082 522.908C117.662 522.644 117.176 522.512 116.624 522.512C115.808 522.512 115.136 522.794 114.608 523.358C114.092 523.922 113.834 524.648 113.834 525.536C113.834 526.436 114.092 527.168 114.608 527.732C115.136 528.284 115.808 528.56 116.624 528.56ZM125.924 530.216C125.168 530.216 124.544 530.09 124.052 529.838C123.56 529.586 123.194 529.256 122.954 528.848C122.714 528.428 122.594 527.972 122.594 527.48C122.594 526.616 122.93 525.932 123.602 525.428C124.274 524.924 125.234 524.672 126.482 524.672H128.822V524.51C128.822 523.814 128.63 523.292 128.246 522.944C127.874 522.596 127.388 522.422 126.788 522.422C126.26 522.422 125.798 522.554 125.402 522.818C125.018 523.07 124.784 523.448 124.7 523.952H122.792C122.852 523.304 123.068 522.752 123.44 522.296C123.824 521.828 124.304 521.474 124.88 521.234C125.468 520.982 126.11 520.856 126.806 520.856C128.054 520.856 129.02 521.186 129.704 521.846C130.388 522.494 130.73 523.382 130.73 524.51V530H129.074L128.912 528.47C128.66 528.962 128.294 529.376 127.814 529.712C127.334 530.048 126.704 530.216 125.924 530.216ZM126.302 528.668C126.818 528.668 127.25 528.548 127.598 528.308C127.958 528.056 128.234 527.726 128.426 527.318C128.63 526.91 128.756 526.46 128.804 525.968H126.68C125.924 525.968 125.384 526.1 125.06 526.364C124.748 526.628 124.592 526.958 124.592 527.354C124.592 527.762 124.742 528.086 125.042 528.326C125.354 528.554 125.774 528.668 126.302 528.668ZM132.414 530V517.04H134.322V530H132.414Z" fill="#1A191E"/>
<path d="M89.625 546.42C89.5644 545.883 89.3144 545.466 88.875 545.17C88.4356 544.871 87.8826 544.722 87.2159 544.722C86.7386 544.722 86.3258 544.797 85.9773 544.949C85.6288 545.097 85.358 545.301 85.1648 545.562C84.9754 545.82 84.8807 546.114 84.8807 546.443C84.8807 546.72 84.9451 546.958 85.0739 547.159C85.2064 547.36 85.3788 547.528 85.5909 547.665C85.8068 547.797 86.0379 547.909 86.2841 548C86.5303 548.087 86.767 548.159 86.9943 548.216L88.1307 548.511C88.5019 548.602 88.8826 548.725 89.2727 548.881C89.6629 549.036 90.0246 549.241 90.358 549.494C90.6913 549.748 90.9602 550.062 91.1648 550.438C91.3731 550.812 91.4773 551.261 91.4773 551.784C91.4773 552.443 91.3068 553.028 90.9659 553.54C90.6288 554.051 90.1383 554.455 89.4943 554.75C88.8542 555.045 88.0795 555.193 87.1705 555.193C86.2992 555.193 85.5455 555.055 84.9091 554.778C84.2727 554.502 83.7746 554.11 83.4148 553.602C83.0549 553.091 82.8561 552.485 82.8182 551.784H84.5795C84.6136 552.205 84.75 552.555 84.9886 552.835C85.2311 553.112 85.5398 553.318 85.9148 553.455C86.2936 553.587 86.7083 553.653 87.1591 553.653C87.6553 553.653 88.0966 553.576 88.483 553.42C88.8731 553.261 89.1799 553.042 89.4034 552.761C89.6269 552.477 89.7386 552.146 89.7386 551.767C89.7386 551.422 89.6402 551.14 89.4432 550.92C89.25 550.701 88.9867 550.519 88.6534 550.375C88.3239 550.231 87.9508 550.104 87.5341 549.994L86.1591 549.619C85.2273 549.366 84.4886 548.992 83.9432 548.5C83.4015 548.008 83.1307 547.356 83.1307 546.545C83.1307 545.875 83.3125 545.29 83.6761 544.79C84.0398 544.29 84.5322 543.902 85.1534 543.625C85.7746 543.345 86.4754 543.205 87.2557 543.205C88.0436 543.205 88.7386 543.343 89.3409 543.619C89.947 543.896 90.4242 544.277 90.7727 544.761C91.1212 545.242 91.303 545.795 91.3182 546.42H89.625ZM95.1378 549.818V555H93.4389V543.364H95.1151V547.693H95.223C95.4276 547.223 95.7401 546.85 96.1605 546.574C96.581 546.297 97.1302 546.159 97.8082 546.159C98.4067 546.159 98.9295 546.282 99.3764 546.528C99.8272 546.775 100.176 547.142 100.422 547.631C100.672 548.116 100.797 548.722 100.797 549.449V555H99.098V549.653C99.098 549.013 98.9332 548.517 98.6037 548.165C98.2741 547.809 97.8158 547.631 97.2287 547.631C96.8272 547.631 96.4673 547.716 96.1491 547.886C95.8348 548.057 95.5866 548.307 95.4048 548.636C95.2268 548.962 95.1378 549.356 95.1378 549.818ZM106.74 555.176C105.922 555.176 105.208 554.989 104.598 554.614C103.988 554.239 103.515 553.714 103.178 553.04C102.84 552.366 102.672 551.578 102.672 550.676C102.672 549.771 102.84 548.979 103.178 548.301C103.515 547.623 103.988 547.097 104.598 546.722C105.208 546.347 105.922 546.159 106.74 546.159C107.558 546.159 108.272 546.347 108.882 546.722C109.492 547.097 109.965 547.623 110.303 548.301C110.64 548.979 110.808 549.771 110.808 550.676C110.808 551.578 110.64 552.366 110.303 553.04C109.965 553.714 109.492 554.239 108.882 554.614C108.272 554.989 107.558 555.176 106.74 555.176ZM106.746 553.75C107.276 553.75 107.715 553.61 108.064 553.33C108.412 553.049 108.67 552.676 108.837 552.21C109.007 551.744 109.092 551.231 109.092 550.67C109.092 550.114 109.007 549.602 108.837 549.136C108.67 548.667 108.412 548.29 108.064 548.006C107.715 547.722 107.276 547.58 106.746 547.58C106.212 547.58 105.768 547.722 105.416 548.006C105.068 548.29 104.808 548.667 104.638 549.136C104.471 549.602 104.388 550.114 104.388 550.67C104.388 551.231 104.471 551.744 104.638 552.21C104.808 552.676 105.068 553.049 105.416 553.33C105.768 553.61 106.212 553.75 106.746 553.75ZM112.705 558.273V546.273H114.364V547.688H114.506C114.604 547.506 114.746 547.295 114.932 547.057C115.117 546.818 115.375 546.61 115.705 546.432C116.034 546.25 116.47 546.159 117.011 546.159C117.716 546.159 118.345 546.337 118.898 546.693C119.451 547.049 119.884 547.562 120.199 548.233C120.517 548.903 120.676 549.71 120.676 550.653C120.676 551.597 120.519 552.405 120.205 553.08C119.89 553.75 119.458 554.267 118.909 554.631C118.36 554.991 117.733 555.17 117.028 555.17C116.498 555.17 116.064 555.081 115.727 554.903C115.394 554.725 115.133 554.517 114.943 554.278C114.754 554.04 114.608 553.828 114.506 553.642H114.403V558.273H112.705ZM114.369 550.636C114.369 551.25 114.458 551.788 114.636 552.25C114.814 552.712 115.072 553.074 115.409 553.335C115.746 553.593 116.159 553.722 116.648 553.722C117.155 553.722 117.58 553.587 117.92 553.318C118.261 553.045 118.519 552.676 118.693 552.21C118.871 551.744 118.96 551.22 118.96 550.636C118.96 550.061 118.873 549.544 118.699 549.085C118.528 548.627 118.271 548.265 117.926 548C117.585 547.735 117.159 547.602 116.648 547.602C116.155 547.602 115.739 547.729 115.398 547.983C115.061 548.237 114.805 548.591 114.631 549.045C114.456 549.5 114.369 550.03 114.369 550.636ZM122.58 558.273V546.273H124.239V547.688H124.381C124.479 547.506 124.621 547.295 124.807 547.057C124.992 546.818 125.25 546.61 125.58 546.432C125.909 546.25 126.345 546.159 126.886 546.159C127.591 546.159 128.22 546.337 128.773 546.693C129.326 547.049 129.759 547.562 130.074 548.233C130.392 548.903 130.551 549.71 130.551 550.653C130.551 551.597 130.394 552.405 130.08 553.08C129.765 553.75 129.333 554.267 128.784 554.631C128.235 554.991 127.608 555.17 126.903 555.17C126.373 555.17 125.939 555.081 125.602 554.903C125.269 554.725 125.008 554.517 124.818 554.278C124.629 554.04 124.483 553.828 124.381 553.642H124.278V558.273H122.58ZM124.244 550.636C124.244 551.25 124.333 551.788 124.511 552.25C124.689 552.712 124.947 553.074 125.284 553.335C125.621 553.593 126.034 553.722 126.523 553.722C127.03 553.722 127.455 553.587 127.795 553.318C128.136 553.045 128.394 552.676 128.568 552.21C128.746 551.744 128.835 551.22 128.835 550.636C128.835 550.061 128.748 549.544 128.574 549.085C128.403 548.627 128.146 548.265 127.801 548C127.46 547.735 127.034 547.602 126.523 547.602C126.03 547.602 125.614 547.729 125.273 547.983C124.936 548.237 124.68 548.591 124.506 549.045C124.331 549.5 124.244 550.03 124.244 550.636ZM132.455 555V546.273H134.153V555H132.455ZM133.312 544.926C133.017 544.926 132.763 544.828 132.551 544.631C132.343 544.43 132.239 544.191 132.239 543.915C132.239 543.634 132.343 543.396 132.551 543.199C132.763 542.998 133.017 542.898 133.312 542.898C133.608 542.898 133.86 542.998 134.068 543.199C134.28 543.396 134.386 543.634 134.386 543.915C134.386 544.191 134.28 544.43 134.068 544.631C133.86 544.828 133.608 544.926 133.312 544.926ZM138.138 549.818V555H136.439V546.273H138.07V547.693H138.178C138.378 547.231 138.693 546.86 139.121 546.58C139.553 546.299 140.096 546.159 140.751 546.159C141.346 546.159 141.867 546.284 142.314 546.534C142.761 546.78 143.107 547.148 143.354 547.636C143.6 548.125 143.723 548.729 143.723 549.449V555H142.024V549.653C142.024 549.021 141.859 548.527 141.53 548.17C141.2 547.811 140.748 547.631 140.172 547.631C139.778 547.631 139.428 547.716 139.121 547.886C138.818 548.057 138.577 548.307 138.399 548.636C138.225 548.962 138.138 549.356 138.138 549.818ZM149.661 558.455C148.967 558.455 148.371 558.364 147.871 558.182C147.375 558 146.969 557.759 146.655 557.46C146.34 557.161 146.106 556.833 145.95 556.477L147.411 555.875C147.513 556.042 147.649 556.218 147.82 556.403C147.994 556.593 148.229 556.754 148.524 556.886C148.823 557.019 149.208 557.085 149.678 557.085C150.321 557.085 150.854 556.928 151.274 556.614C151.695 556.303 151.905 555.807 151.905 555.125V553.409H151.797C151.695 553.595 151.547 553.801 151.354 554.028C151.164 554.256 150.903 554.453 150.57 554.619C150.236 554.786 149.803 554.869 149.268 554.869C148.579 554.869 147.958 554.708 147.405 554.386C146.856 554.061 146.42 553.581 146.098 552.949C145.78 552.312 145.621 551.53 145.621 550.602C145.621 549.674 145.778 548.879 146.092 548.216C146.411 547.553 146.846 547.045 147.399 546.693C147.952 546.337 148.579 546.159 149.28 546.159C149.821 546.159 150.259 546.25 150.592 546.432C150.926 546.61 151.185 546.818 151.371 547.057C151.56 547.295 151.706 547.506 151.808 547.688H151.933V546.273H153.598V555.193C153.598 555.943 153.424 556.559 153.075 557.04C152.727 557.521 152.255 557.877 151.661 558.108C151.07 558.339 150.403 558.455 149.661 558.455ZM149.643 553.46C150.132 553.46 150.545 553.347 150.882 553.119C151.223 552.888 151.481 552.559 151.655 552.131C151.833 551.699 151.922 551.182 151.922 550.58C151.922 549.992 151.835 549.475 151.661 549.028C151.486 548.581 151.231 548.233 150.893 547.983C150.556 547.729 150.14 547.602 149.643 547.602C149.132 547.602 148.706 547.735 148.365 548C148.024 548.261 147.767 548.617 147.592 549.068C147.422 549.519 147.337 550.023 147.337 550.58C147.337 551.152 147.424 551.653 147.598 552.085C147.772 552.517 148.03 552.854 148.371 553.097C148.715 553.339 149.14 553.46 149.643 553.46Z" fill="#1A191E" fill-opacity="0.5"/>
<path d="M320.026 538.572V536.97H327.352V538.572H320.026ZM328.838 543V541.632C329.654 540.984 330.434 540.33 331.178 539.67C331.922 539.01 332.582 538.362 333.158 537.726C333.746 537.078 334.208 536.448 334.544 535.836C334.88 535.212 335.048 534.612 335.048 534.036C335.048 533.652 334.982 533.292 334.85 532.956C334.718 532.608 334.502 532.332 334.202 532.128C333.902 531.912 333.5 531.804 332.996 531.804C332.24 531.804 331.67 532.044 331.286 532.524C330.914 533.004 330.734 533.58 330.746 534.252H328.892C328.904 533.364 329.09 532.62 329.45 532.02C329.822 531.42 330.314 530.964 330.926 530.652C331.55 530.34 332.252 530.184 333.032 530.184C334.22 530.184 335.168 530.52 335.876 531.192C336.596 531.852 336.956 532.776 336.956 533.964C336.956 534.672 336.782 535.374 336.434 536.07C336.098 536.766 335.654 537.438 335.102 538.086C334.562 538.722 333.98 539.322 333.356 539.886C332.732 540.45 332.138 540.96 331.574 541.416H337.334V543H328.838ZM343.75 543.216C342.61 543.216 341.626 542.946 340.798 542.406C339.982 541.854 339.352 541.092 338.908 540.12C338.476 539.136 338.26 537.996 338.26 536.7C338.26 535.404 338.476 534.27 338.908 533.298C339.352 532.314 339.982 531.552 340.798 531.012C341.626 530.46 342.61 530.184 343.75 530.184C344.89 530.184 345.868 530.46 346.684 531.012C347.5 531.552 348.124 532.314 348.556 533.298C349 534.27 349.222 535.404 349.222 536.7C349.222 537.996 349 539.136 348.556 540.12C348.124 541.092 347.5 541.854 346.684 542.406C345.868 542.946 344.89 543.216 343.75 543.216ZM343.75 541.506C344.434 541.506 345.04 541.314 345.568 540.93C346.108 540.546 346.528 539.994 346.828 539.274C347.128 538.554 347.278 537.696 347.278 536.7C347.278 535.704 347.128 534.846 346.828 534.126C346.528 533.406 346.108 532.854 345.568 532.47C345.04 532.086 344.434 531.894 343.75 531.894C343.054 531.894 342.442 532.086 341.914 532.47C341.386 532.854 340.972 533.406 340.672 534.126C340.372 534.846 340.222 535.704 340.222 536.7C340.222 537.696 340.372 538.554 340.672 539.274C340.972 539.994 341.386 540.546 341.914 540.93C342.442 541.314 343.054 541.506 343.75 541.506ZM355.848 543.216C354.708 543.216 353.724 542.946 352.896 542.406C352.08 541.854 351.45 541.092 351.006 540.12C350.574 539.136 350.358 537.996 350.358 536.7C350.358 535.404 350.574 534.27 351.006 533.298C351.45 532.314 352.08 531.552 352.896 531.012C353.724 530.46 354.708 530.184 355.848 530.184C356.988 530.184 357.966 530.46 358.782 531.012C359.598 531.552 360.222 532.314 360.654 533.298C361.098 534.27 361.32 535.404 361.32 536.7C361.32 537.996 361.098 539.136 360.654 540.12C360.222 541.092 359.598 541.854 358.782 542.406C357.966 542.946 356.988 543.216 355.848 543.216ZM355.848 541.506C356.532 541.506 357.138 541.314 357.666 540.93C358.206 540.546 358.626 539.994 358.926 539.274C359.226 538.554 359.376 537.696 359.376 536.7C359.376 535.704 359.226 534.846 358.926 534.126C358.626 533.406 358.206 532.854 357.666 532.47C357.138 532.086 356.532 531.894 355.848 531.894C355.152 531.894 354.54 532.086 354.012 532.47C353.484 532.854 353.07 533.406 352.77 534.126C352.47 534.846 352.32 535.704 352.32 536.7C352.32 537.696 352.47 538.554 352.77 539.274C353.07 539.994 353.484 540.546 354.012 540.93C354.54 541.314 355.152 541.506 355.848 541.506ZM362.025 538.68V537.438H363.447C363.423 537.198 363.411 536.958 363.411 536.718C363.411 536.454 363.423 536.202 363.447 535.962H362.025V534.702H363.645C363.981 533.334 364.653 532.242 365.661 531.426C366.681 530.598 367.953 530.184 369.477 530.184C370.953 530.184 372.159 530.544 373.095 531.264C374.031 531.984 374.625 532.992 374.877 534.288H372.771C372.591 533.556 372.225 532.974 371.673 532.542C371.133 532.11 370.395 531.894 369.459 531.894C368.511 531.894 367.707 532.14 367.047 532.632C366.399 533.124 365.931 533.814 365.643 534.702H369.801V535.962H365.409C365.385 536.202 365.373 536.454 365.373 536.718C365.373 536.97 365.385 537.21 365.409 537.438H369.801V538.68H365.643C365.919 539.58 366.387 540.276 367.047 540.768C367.707 541.26 368.511 541.506 369.459 541.506C370.395 541.506 371.133 541.302 371.673 540.894C372.225 540.486 372.591 539.928 372.771 539.22H374.877C374.625 540.468 374.031 541.446 373.095 542.154C372.159 542.862 370.953 543.216 369.477 543.216C367.941 543.216 366.663 542.808 365.643 541.992C364.635 541.164 363.969 540.06 363.645 538.68H362.025Z" fill="#1A191E"/>
</svg>
